<svg width="145" height="65" viewBox="0 0 145 65" fill="none" xmlns="http://www.w3.org/2000/svg">
<g clip-path="url(#clip0_6_429)">
<path d="M135.036 25.112C134.858 25.1101 134.679 25.1271 134.451 25.1949C131.741 26.0579 121.872 29.6544 110.25 31.3771C109.731 31.4501 109.867 31.7107 110.484 31.7505C118.25 32.5322 121.189 32.6185 124.748 32.5803C128.162 32.4625 130.72 32.967 133.594 29.7174C136.236 26.8058 136.28 25.1258 135.036 25.112ZM28.333 27.4354L24.1241 28.7632L25.8778 30.0909V45.1105L24.1241 46.3968H30.0477L28.333 45.1105V37.1858L29.9308 35.9826C31.2979 34.8208 32.6026 34.5719 33.5161 34.5719C35.0251 34.5719 35.5037 35.5677 35.5037 36.1485V46.3968H39.7125L37.9978 45.1105V36.1485C37.9978 34.3677 37.0329 32.9952 34.2566 32.9952C33.1981 32.9952 31.5426 33.2558 29.7359 34.6963L28.333 35.8581V27.4354ZM0.390625 27.9748L2.10536 29.3025V45.1105L0.390625 46.3968H14.2254V42.9945L11.7702 45.1105H4.59951V37.1858H9.54885L11.4974 38.7624V34.2814L9.54885 35.8581H4.59951V29.3025H11.4974L13.7188 31.1281V27.9748H0.390625ZM43.0641 29.5515C42.3267 29.5515 41.7001 30.0062 41.7001 30.5887C41.7001 31.1696 42.3267 31.6675 43.0641 31.6675C43.8139 31.6675 44.428 31.1696 44.428 30.5887C44.428 30.0062 43.8139 29.5515 43.0641 29.5515ZM80.3984 29.5515C79.6502 29.5515 79.0344 30.0062 79.0344 30.5887C79.0344 31.1696 79.6502 31.6675 80.3984 31.6675C81.1482 31.6675 81.7624 31.1696 81.7624 30.5887C81.7624 30.0062 81.1482 29.5515 80.3984 29.5515ZM19.6814 30.5887L14.732 34.2814H17.1872V44.0318C17.1872 45.5985 18.4078 46.8117 20.149 46.8117C21.7796 46.81 23.0422 45.8441 23.3836 45.1105L22.6432 44.5712C22.4888 44.7504 21.9822 45.6499 20.5387 45.6499C19.9323 45.6499 19.6814 45.3595 19.6814 45.3595V34.2814H23.3836V33.2442H19.6814V30.5887ZM53.8201 32.9952C49.4241 32.9968 46.3766 36.2879 46.3766 39.8412C46.3878 43.3779 49.4241 46.6872 53.8201 46.6872C58.2488 46.6823 61.2246 43.3779 61.2246 39.8412C61.2134 36.2879 58.2488 32.9886 53.8201 32.9952ZM70.8895 32.9952C69.4132 32.9952 67.0968 33.2209 65.9401 34.8208V33.2442L61.7312 34.5719L63.446 35.8581V50.3384L61.7312 51.6661H67.421L65.9401 50.3384V44.8201C67.2277 46.3453 69.4132 46.6872 70.8895 46.6872C74.5247 46.6823 76.8131 43.0144 76.8131 39.8412C76.8131 36.4124 74.5247 32.9902 70.8895 32.9952ZM90.9207 32.9952C89.3337 32.9952 87.1062 33.3587 85.9713 34.0325V36.9368L88.8941 34.6548C89.4662 34.1951 90.0835 34.0325 90.9207 34.0325C92.4405 34.0325 93.6486 34.9254 93.6486 36.1485V38.5135H90.1802C86.9955 38.5184 84.2566 40.6694 84.2566 43.2435C84.2566 45.3462 85.711 46.6872 87.4522 46.6872C87.8606 46.6872 88.5154 46.576 88.9331 46.3968L93.6486 44.2807V46.3968H97.8575L96.1038 45.1105V36.1485C96.1038 34.1155 94.347 32.9952 90.9207 32.9952ZM108.224 32.9952C107.309 32.9952 105.586 33.0832 103.547 34.7378L102.3 35.8581V33.2442L98.0913 34.5719L99.845 35.8581V45.1105L98.0913 46.3968H104.054L102.3 45.1105V37.1858L103.781 35.8581C105.368 34.5154 106.612 34.5719 107.483 34.5719C109.477 34.5719 109.978 35.4996 109.978 36.1485V46.3968H114.186L112.433 45.1105V36.1485C112.433 34.9353 111.694 32.9952 108.224 32.9952ZM44.428 33.2442L40.2192 34.5719L41.9339 35.8581V45.1105L40.2192 46.3968H46.1428L44.428 45.1105V33.2442ZM81.7624 33.2442L77.5535 34.5719L79.3072 35.8581V45.1105L77.5535 46.3968H83.5161L81.7624 45.1105V33.2442ZM53.8201 34.0325C57.1139 34.0325 58.2628 37.0812 58.2628 39.8412C58.2628 42.5879 57.1139 45.6084 53.8201 45.6084C50.559 45.6084 49.3774 42.5879 49.3774 39.8412C49.3774 37.0829 50.559 34.0341 53.8201 34.0325ZM69.9152 34.2814C73.0438 34.2748 73.8513 37.3883 73.8513 39.8412C73.8513 42.2809 73.0438 45.3595 69.9152 45.3595C68.241 45.3628 66.7429 44.6774 65.9401 43.2435V36.3975C66.732 34.927 68.241 34.2848 69.9152 34.2814ZM90.9207 39.5508H93.6486V42.9945L90.1802 44.5712C89.7936 44.7504 89.0407 45.1105 88.6993 45.1105C87.9495 45.1105 86.9456 44.6508 86.9456 42.9945C86.9456 40.8901 88.5418 39.5508 90.9207 39.5508ZM55.5738 53.6577C53.9651 53.6577 52.2441 54.2319 51.7157 55.5248C51.6049 55.7903 51.5426 56.0957 51.5208 56.3961C51.532 57.2856 51.2932 58.6465 52.3392 59.5079L53.8201 60.7526L55.1451 61.8314C55.3431 61.9691 55.6128 62.1417 55.6128 62.5782V63.7399L54.5606 64.5283H58.068L57.0547 63.7399V62.4952C57.0547 61.8762 56.9705 61.4347 56.4312 61.0015L54.9503 59.7568C54.4218 59.3535 54.4296 59.3104 54.1319 59.093C54.1319 59.093 55.3228 59.1477 55.8856 59.1345C58.121 59.1726 59.1514 58.5868 59.4709 57.8897C59.6471 57.5014 59.6985 57.0101 59.6658 56.2716C59.633 55.5032 59.5691 55.3887 59.393 55.0269C58.8754 54.0211 57.315 53.6577 55.5738 53.6577ZM63.8747 53.6577L61.4195 54.446L62.4327 55.2343V55.8567H64.4592L62.1989 58.9685C61.8575 59.4614 61.5754 60.0273 61.5754 60.7941V63.7399L60.5231 64.5283H64.0305L63.0173 63.7399V60.7941C63.0173 60.1502 63.2511 59.8398 63.3291 59.7153C63.4507 59.5427 63.5192 59.4514 63.5629 59.3834C63.6517 59.2606 63.7967 59.2174 63.7967 59.2174C64.1708 59.1129 67.2262 58.6598 67.2262 60.2547V63.574C67.2262 64.198 67.5239 64.5283 67.8108 64.5283C67.9651 64.5283 68.1085 64.5167 68.3953 64.3623C68.6915 64.208 69.2916 63.7399 69.2916 63.7399V64.5283H71.7468L70.7336 63.7399V62.3707H70.0321L68.7071 63.2835V60.1302C68.6634 58.3046 66.5325 58.1603 64.1864 58.4706L66.096 55.8567V55.2343H63.8747V53.6577ZM75.4101 53.6577L72.916 54.446L73.9292 55.2343V55.8567H75.4101V58.4706H71.3182V60.0058L70.3049 60.7941H72.7991V59.093H75.4101V63.7399L74.3969 64.5283H77.8653L76.8521 63.7399V59.093H79.4631V60.7941H81.9573L80.944 60.0058V58.4706H76.8521V55.9811C76.8521 55.3604 76.5917 55.2343 76.1506 55.2343H75.4101V53.6577ZM86.4779 53.6577C84.8801 53.6577 83.1373 54.2336 82.6198 55.5248C82.4982 55.7903 82.4187 56.0957 82.386 56.3961C82.4078 57.2856 82.1973 58.6465 83.2433 59.5079L84.7242 60.7526L86.0493 61.8314C86.2472 61.9691 86.4889 62.1434 86.4779 62.5782V63.7399L85.4647 64.5283H88.9721L87.9199 63.7399V62.4952C87.9199 61.8762 87.8465 61.4347 87.2963 61.0015L85.8544 59.7568C85.326 59.3535 85.3337 59.3104 85.036 59.093C85.036 59.093 86.2005 59.1477 86.7507 59.1345C88.9986 59.1743 90.0274 58.5868 90.3361 57.8897C90.4032 57.7437 90.4592 57.581 90.492 57.3918H91.1155V59.093H93.6097L92.5964 58.3046V56.7695H90.5699V56.2716C90.5248 55.5015 90.4733 55.3887 90.2971 55.0269C89.7796 54.0195 88.2285 53.6577 86.4779 53.6577ZM98.9877 53.6577L96.5325 54.446L97.5457 55.2343C96.0477 55.2343 94.4935 55.8849 94.4281 57.3918C94.3719 58.8274 95.3556 59.551 96.6884 59.5909L95.2075 60.1302C94.4374 60.4522 93.8825 60.809 93.8825 62.2048V63.7399L92.8692 64.5283H96.3766L95.3634 63.7399V62.3293C95.3634 61.8845 95.287 61.531 95.9479 61.292C95.9479 61.292 98.3205 60.4124 98.4421 60.3792C99.5987 60.4688 100.586 60.5385 100.586 61.9143V63.7399L99.5723 64.5283H103.08L102.066 63.7399V61.9143C102.066 60.1468 100.847 59.9095 99.845 59.7983C99.976 59.7485 100.349 59.5942 100.469 59.5494C101.79 59.0332 102.112 58.4407 102.144 57.4333V57.3918H102.729V59.093H105.184L104.171 58.3046V56.7695H102.066C101.858 55.9861 101.114 55.2725 98.9877 55.2343V53.6577ZM110.055 53.6577C108.458 53.6577 106.754 54.2319 106.236 55.5248C106.127 55.7903 106.024 56.0957 106.002 56.3961C106.014 57.2856 105.825 58.6465 106.86 59.5079L110.055 62.2463L105.418 62.6612V63.7399L104.405 64.5283H107.873L106.86 63.7399V63.1591L112.121 62.6612V62.0388L108.653 59.093C108.653 59.093 109.805 59.1477 110.367 59.1345C112.603 59.1726 113.655 58.5868 113.953 57.8897C114.129 57.5014 114.219 57.0085 114.186 56.2716C114.152 55.5015 114.1 55.3887 113.914 55.0269C113.407 54.0195 111.806 53.6577 110.055 53.6577ZM55.5738 54.28C57.0173 54.2634 58.1288 54.6086 58.1069 56.1471V56.728C58.0957 57.5595 57.7889 58.2349 56.665 58.3461C55.1997 58.4706 54.732 58.5021 53.5863 58.3876C52.969 58.2598 53.0687 57.1396 53.0796 56.7695V56.2716C53.1015 54.9721 54.0758 54.2933 55.5738 54.28ZM86.4779 54.28C87.9199 54.2618 88.9939 54.6086 88.9721 56.1471V56.728C88.9609 57.5595 88.6541 58.2333 87.5302 58.3461C86.0758 58.4689 85.6346 58.5021 84.4904 58.3876C83.884 58.2582 83.962 57.1396 83.9838 56.7695V56.2716C83.9962 54.9721 84.9892 54.2916 86.4779 54.28ZM110.055 54.28C111.497 54.2634 112.611 54.6103 112.589 56.1471V56.728C112.589 57.5595 112.26 58.2349 111.147 58.3461C109.681 58.4706 109.253 58.5021 108.107 58.3876C107.501 58.2598 107.589 57.1396 107.6 56.7695V56.2716C107.612 54.9721 108.568 54.2933 110.055 54.28ZM98.2862 55.8152C100.269 55.772 100.646 56.4608 100.624 57.1844C100.613 57.6491 100.619 58.0872 99.6502 58.4706C99.4631 58.5453 98.7196 58.8224 98.0913 59.0515C96.4608 59.01 95.9869 58.7295 95.9869 57.3504C95.9869 55.9894 97.4709 55.8351 98.2862 55.8152Z" fill="#C52528"/>
<path d="M107.848 30.8762C115.79 28.7237 135.675 17.3469 138.627 15.3238C140.082 14.3595 141.69 14.9321 139.123 19.3882C137.372 22.1266 136.171 23.7199 131.5 25.2268C128.294 26.5197 116.386 30.209 108.046 31.2812C107.429 31.3359 107.231 31.0936 107.848 30.8762Z" fill="#FFC92D"/>
<path d="M108.641 30.2807C115.57 27.6916 130.663 19.2341 135.807 15.8734C139.509 13.4752 142.373 11.7027 143.486 8.69713C145.876 1.82956 144.047 -0.965266 141.778 1.17898C138.881 4.1796 125.232 19.4184 107.771 30.1313C107.506 30.2923 107.474 30.664 108.641 30.2807Z" fill="#5E8F4D"/>
</g>
<defs>
<clipPath id="clip0_6_429">
<rect width="145" height="65" fill="white"/>
</clipPath>
</defs>
</svg>
