<svg width="167" height="53" viewBox="0 0 167 53" fill="none" xmlns="http://www.w3.org/2000/svg">
<g clip-path="url(#clip0_10_435)">
<path d="M40.7058 49.9678C40.8732 49.9817 41.0498 49.9951 41.3855 49.9996L46.3644 50.0503C56.2545 50.2542 66.1506 50.6319 76.0348 49.8884C93.4612 49.3008 110.876 46.4827 127.419 40.8345C131.676 39.2516 135.945 37.4049 139.491 34.4788C142.781 31.8826 144.59 27.0499 143.013 23.0146C141.602 19.9987 138.809 17.9121 136.052 16.2212C127.478 11.1427 117.766 8.33657 108.012 6.73565C90.9946 3.70171 73.6868 2.18473 56.4028 2.71837C45.6647 2.92224 34.897 3.54581 24.3191 5.51248C20.9156 5.96217 17.6189 7.00547 14.2036 7.35923C14.7669 5.97417 16.2967 5.73433 17.5418 5.32061C32.6735 1.03951 48.493 0.188088 64.1287 0.0741652C79.4976 -0.315571 94.8842 0.853637 110.093 3.04215C121.252 4.83494 132.512 7.30526 142.604 12.6237C147.092 14.9441 151.705 18.1759 153.436 23.2005C154.492 26.0486 153.964 29.3163 152.328 31.8286C149.731 36.0378 145.29 38.5381 141.068 40.7866C129.553 46.7825 116.686 49.4027 103.968 51.2375C83.3576 53.6718 62.4863 53.492 41.8759 51.2675C41.1727 51.1882 40.4698 51.0505 40.2125 50.9719L40.7058 49.9678Z" fill="#0160A9"/>
<path d="M121.074 2.04687C121.696 1.25541 122.479 1.02157 123.422 1.34535C134.314 3.4739 145.331 6.01018 155.227 11.2626C158.636 13.0134 161.69 15.4838 164.186 18.4098C167.062 21.7915 168.028 27.0319 165.686 30.9653C162.953 35.5642 158.375 38.718 153.644 40.9305C148.544 43.2509 143.315 45.3675 137.848 46.6267C138.002 46.3389 138.304 45.7572 138.459 45.4694C141.904 43.8146 145.574 42.4955 148.58 40.0311C151.977 37.267 155.784 34.1911 156.585 29.5802C157.836 24.8074 155.932 19.7229 152.452 16.4191C144.204 7.77899 132.191 4.86496 121.074 2.04687Z" fill="#0160A9"/>
<path d="M8.54679 11.4543C13.0709 10.5609 17.9507 10.501 22.2851 12.2698C25.5403 13.5109 27.6867 16.8327 28.0721 20.2564C28.582 24.1058 28.2085 28.5248 25.4336 31.4688C22.4392 34.6106 17.8144 35.0244 13.7409 35.0723C9.48956 34.9764 4.5267 34.1789 1.93558 30.3715C-0.305716 26.4981 -0.554748 21.5335 0.951305 17.3543C2.17868 14.1225 5.28565 12.0899 8.54679 11.4543ZM12.2171 15.2078C9.49549 15.5196 7.31942 17.7381 7.01109 20.4902C6.51303 23.8959 6.79171 28.6207 10.4145 30.1856C13.8832 31.5767 18.9824 31.139 20.7257 27.3076C21.7277 24.4056 21.8226 21.0059 20.5122 18.1818C18.9231 15.3217 15.1699 14.6322 12.2171 15.2078Z" fill="#E31818"/>
<path d="M31.2383 11.4184C33.1653 11.4004 35.0983 11.4004 37.0253 11.4064C37.0253 12.8574 37.0194 14.3085 37.0016 15.7655C35.0864 15.7535 33.1653 15.7535 31.2501 15.7535C31.2442 14.3085 31.2442 12.8634 31.2383 11.4184Z" fill="#E31818"/>
<path d="M40.2568 11.4424C42.2906 11.4004 44.3244 11.4004 46.3581 11.4004C46.3996 15.9573 46.3048 20.5202 46.3996 25.0831C46.4649 26.5881 46.4826 28.5248 48.0124 29.3342C50.5798 30.7313 53.6275 29.9638 56.4143 30.1257C56.438 31.5288 56.4558 32.9318 56.4736 34.3348C51.8784 34.101 46.37 35.3362 42.6879 31.7986C40.6956 30.1737 40.3398 27.4755 40.3043 25.0531C40.2509 20.5202 40.3339 15.9813 40.2568 11.4424Z" fill="#E31818"/>
<path d="M59.6992 11.4244C61.6737 11.4004 63.6482 11.4004 65.6167 11.4004C65.6286 12.8514 65.6345 14.3024 65.6286 15.7534C63.6541 15.7534 61.6856 15.7534 59.7111 15.7534C59.7052 14.3084 59.7051 12.8634 59.6992 11.4244Z" fill="#E31818"/>
<path d="M68.8599 11.4243C70.8047 11.4063 72.7495 11.4123 74.6943 11.4123C74.6765 13.457 74.6765 15.5016 74.6765 17.5462C78.6966 17.756 83.3986 16.7127 86.7665 19.5308C90.7569 22.6427 90.5672 29.7059 86.3633 32.53C84.2347 34.083 81.5072 34.3288 78.9635 34.3528C75.6015 34.3408 72.2396 34.3348 68.8777 34.3408C68.8895 26.702 68.9369 19.0632 68.8599 11.4243ZM74.6943 21.4495C74.6647 24.4475 74.6765 27.4515 74.6943 30.4494C77.3092 30.3355 80.2916 30.8931 82.5626 29.2622C84.0449 27.4934 83.9678 24.4655 82.5151 22.6907C80.3213 20.9459 77.2914 21.5635 74.6943 21.4495Z" fill="#E31818"/>
<path d="M31.2441 17.3904C33.1711 17.4024 35.0982 17.4024 37.0311 17.4024C37.0074 23.0505 37.0371 28.6927 37.0074 34.3409C35.0922 34.3409 33.1711 34.3409 31.25 34.3409C31.256 28.6927 31.2322 23.0386 31.2441 17.3904Z" fill="#E31818"/>
<path d="M59.7113 17.3843C61.6858 17.4023 63.6603 17.4023 65.6347 17.3963C65.6229 23.0444 65.6407 28.6926 65.6347 34.3408C63.6603 34.3408 61.6858 34.3408 59.7113 34.3408C59.7113 28.6866 59.6995 23.0384 59.7113 17.3843Z" fill="#E31818"/>
<path d="M91.4092 17.5402C93.3362 17.5522 95.2633 17.5522 97.1962 17.5342C97.2318 20.8379 97.1666 24.1477 97.214 27.4515C97.2614 28.5127 97.3622 30.1196 98.6786 30.3055C100.7 30.5933 102.746 30.4075 104.78 30.4015C104.762 26.1144 104.762 21.8273 104.78 17.5342C106.695 17.5522 108.616 17.5522 110.537 17.5342C110.543 22.8406 110.537 28.147 110.555 33.4474C110.561 35.1203 110.407 36.961 109.251 38.2621C107.822 40.007 105.426 40.3547 103.321 40.4686C99.4968 40.5166 95.6724 40.4806 91.848 40.4686C91.8598 39.2215 91.8657 37.9803 91.8717 36.7332C95.4886 36.6912 99.1114 36.8591 102.722 36.6612C103.932 36.6492 104.406 35.3301 105.059 34.5387C101.501 34.3768 97.801 34.8145 94.4035 33.5253C92.4705 32.7759 91.4625 30.6893 91.4507 28.6866C91.3617 24.9751 91.4566 21.2517 91.4092 17.5402Z" fill="#E31818"/>
<path d="M114.398 17.7021C118.394 17.7261 122.39 17.6721 126.387 17.7081C128.764 17.834 131.48 18.0738 133.194 19.9746C134.213 20.9939 134.522 22.4869 134.545 23.8899C134.599 27.3735 134.551 30.8572 134.545 34.3468C129.464 34.3168 124.388 34.3708 119.307 34.3228C117.303 34.2749 114.955 33.7832 113.793 31.9544C113.063 30.4554 113.022 28.6207 113.609 27.0677C114.581 25.191 116.74 24.3996 118.714 24.2497C122.129 23.9978 125.557 24.2497 128.978 24.0938C128.492 23.1104 128.112 21.8033 126.831 21.6714C122.71 21.1018 118.524 21.7134 114.386 21.3176C114.392 20.1125 114.392 18.9073 114.398 17.7021ZM119.36 28.6807C118.868 29.4961 119.615 30.5094 120.493 30.5094C123.25 30.7493 126.025 30.5214 128.794 30.6293C128.782 29.616 128.776 28.6147 128.764 27.6074C126.387 27.6074 124.003 27.5054 121.625 27.6314C120.819 27.7393 119.704 27.7753 119.36 28.6807Z" fill="#E31818"/>
</g>
<defs>
<clipPath id="clip0_10_435">
<rect width="167" height="53" fill="white"/>
</clipPath>
</defs>
</svg>
