<svg width="69" height="26" viewBox="0 0 69 26" fill="none" xmlns="http://www.w3.org/2000/svg">
<path d="M16.056 23.638L1.656 17.554C0.552 17.098 0 16.306 0 15.178C0 14.626 0.132 14.17 0.396 13.81C0.684 13.426 1.104 13.114 1.656 12.874L16.056 6.75402C16.464 6.58602 16.824 6.55002 17.136 6.64602C17.472 6.74202 17.736 6.92202 17.928 7.18602C18.12 7.45002 18.228 7.75002 18.252 8.08602C18.276 8.42202 18.204 8.74602 18.036 9.05802C17.892 9.34602 17.616 9.57402 17.208 9.74202L1.512 16.33V14.098L17.208 20.686C17.616 20.854 17.892 21.094 18.036 21.406C18.204 21.694 18.276 22.006 18.252 22.342C18.228 22.654 18.12 22.942 17.928 23.206C17.736 23.47 17.472 23.65 17.136 23.746C16.824 23.842 16.464 23.806 16.056 23.638Z" fill="#FD705F"/>
<path d="M27.9394 25.834C27.1474 25.834 26.5714 25.606 26.2114 25.15C25.8514 24.67 25.7314 24.022 25.8514 23.206L29.1274 2.39802C29.2474 1.65402 29.5234 1.10202 29.9554 0.742017C30.4114 0.358016 31.0114 0.166016 31.7554 0.166016H44.0674C44.6914 0.166016 45.1714 0.298016 45.5074 0.562017C45.8434 0.802017 46.0114 1.16202 46.0114 1.64202C46.0114 2.31402 45.8194 2.85402 45.4354 3.26202C45.0754 3.64602 44.5474 3.83802 43.8514 3.83802H33.5554L32.4034 11.002H41.5834C42.2074 11.002 42.6874 11.134 43.0234 11.398C43.3594 11.638 43.5274 11.998 43.5274 12.478C43.5274 13.15 43.3354 13.69 42.9514 14.098C42.5914 14.482 42.0634 14.674 41.3674 14.674H31.8274L30.4234 23.566C30.1834 25.078 29.3554 25.834 27.9394 25.834Z" fill="#FD705F"/>
<path d="M52.3837 23.638C51.9757 23.806 51.6037 23.842 51.2677 23.746C50.9557 23.65 50.7037 23.47 50.5117 23.206C50.3197 22.942 50.2117 22.654 50.1877 22.342C50.1637 22.006 50.2357 21.694 50.4037 21.406C50.5717 21.094 50.8477 20.854 51.2317 20.686L66.9277 14.098V16.33L51.2317 9.74202C50.8477 9.57402 50.5717 9.34602 50.4037 9.05802C50.2357 8.74602 50.1637 8.42202 50.1877 8.08602C50.2117 7.75002 50.3197 7.45002 50.5117 7.18602C50.7037 6.92202 50.9557 6.74202 51.2677 6.64602C51.6037 6.55002 51.9757 6.58602 52.3837 6.75402L66.7837 12.874C67.8877 13.33 68.4397 14.098 68.4397 15.178C68.4397 15.73 68.2957 16.21 68.0077 16.618C67.7437 17.002 67.3357 17.314 66.7837 17.554L52.3837 23.638Z" fill="#FD705F"/>
</svg>
