<svg width="67" height="60" viewBox="0 0 67 60" fill="none" xmlns="http://www.w3.org/2000/svg">
<path fill-rule="evenodd" clip-rule="evenodd" d="M66.7327 30.321L66.6208 30.7536L66.49 31.1832L66.3408 31.6091L66.1736 32.0309L65.989 32.448L65.7874 32.8599L65.5695 33.2663L65.3361 33.6666L65.0877 34.0606L64.8251 34.4478L64.5493 34.8279L64.261 35.2006L63.9611 35.5658L63.6506 35.9232L63.3303 36.2727L63.0013 36.6142L62.6645 36.9477L62.3211 37.2732L61.9723 37.5907L61.6192 37.9004L61.2632 38.2026L60.9056 38.4976L60.5475 38.7856L60.1903 39.0672L59.8354 39.3428L59.4838 39.613L59.137 39.8783L58.796 40.1394L58.4621 40.3971L58.1363 40.652L57.8198 40.905L57.5133 41.1569L57.2179 41.4086L56.9342 41.6608L56.6628 41.9144L56.4042 42.1703L56.1589 42.4292L55.927 42.6919L55.7087 42.9593L55.504 43.2319L55.3128 43.5105L55.135 43.7957L54.9701 44.0881L54.8177 44.3881L54.6774 44.6962L54.5485 45.0128L54.4304 45.3381L54.3222 45.6724L54.2231 46.0157L54.1321 46.3682L54.0483 46.7297L53.9707 47.1001L53.898 47.4793L53.8292 47.8668L53.7631 48.2622L53.6986 48.6652L53.6344 49.075L53.5692 49.491L53.502 49.9124L53.4314 50.3384L53.3564 50.7681L53.2757 51.2004L53.1882 51.6344L53.0929 52.0689L52.9887 52.5027L52.8746 52.9346L52.7497 53.3634L52.6132 53.7877L52.4643 54.2064L52.3023 54.6179L52.1266 55.0211L51.9367 55.4146L51.7322 55.797L51.5127 56.1671L51.278 56.5237L51.028 56.8654L50.7626 57.1912L50.4819 57.5L50.186 57.7906L49.8753 58.0622L49.5499 58.3138L49.2105 58.5447L48.8574 58.7542L48.4913 58.9417L48.1128 59.1067L47.7228 59.2489L47.3219 59.3681L46.9111 59.464L46.4912 59.5368L46.0633 59.5864L45.6282 59.6133L45.187 59.6176L44.7406 59.5999L44.2901 59.5607L43.8365 59.5007L43.3808 59.4205L42.9239 59.3211L42.4668 59.2032L42.0104 59.0678L41.5555 58.9159L41.1031 58.7488L40.6539 58.5676L40.2087 58.3737L39.7683 58.1686L39.3335 57.954L38.9047 57.7314L38.4828 57.5027L38.068 57.2697L37.661 57.0341L37.2619 56.798L36.8711 56.563L36.4886 56.3311L36.1146 56.104L35.749 55.8834L35.3918 55.6711L35.0426 55.4687L34.7011 55.2776L34.3671 55.0993L34.0401 54.9353L33.7195 54.7868L33.4048 54.6549L33.0953 54.5408L32.7903 54.4453L32.489 54.3693L32.1908 54.3134L31.8946 54.2782L31.5998 54.2639L31.3055 54.2709L31.0107 54.299L30.7146 54.3483L30.4163 54.4183L30.115 54.5085L29.81 54.6185L29.5004 54.7473L29.1855 54.8941L28.8647 55.0578L28.5373 55.2371L28.2028 55.4309L27.8608 55.6375L27.5109 55.8556L27.1527 56.0835L26.7861 56.3196L26.4109 56.5619L26.0271 56.8088L25.6348 57.0584L25.2341 57.3088L24.8253 57.5582L24.4086 57.8046L23.9846 58.0462L23.5538 58.2811L23.1166 58.5076L22.6739 58.7238L22.2263 58.9281L21.7746 59.1188L21.3198 59.2944L20.8627 59.4534L20.4044 59.5945L19.9458 59.7162L19.4881 59.8176L19.0322 59.8975L18.5792 59.9551L18.1304 59.9895L17.6867 60L17.2494 59.9861L16.8194 59.9474L16.3978 59.8836L15.9857 59.7945L15.5841 59.6801L15.194 59.5405L14.8161 59.3759L14.4515 59.1866L14.1008 58.9731L13.7647 58.7361L13.444 58.476L13.1392 58.1939L12.8506 57.8904L12.5788 57.5667L12.324 57.2237L12.0863 56.8626L11.8659 56.4846L11.6627 56.091L11.4766 55.6832L11.3073 55.2625L11.1545 54.8304L11.0177 54.3883L10.8965 53.9377L10.7902 53.4799L10.698 53.0165L10.6193 52.5488L10.5532 52.0782L10.4988 51.6059L10.4553 51.1333L10.4215 50.6616L10.3965 50.1918L10.3794 49.725L10.3691 49.2621L10.3647 48.804L10.3651 48.3515L10.3695 47.905L10.3771 47.4653L10.3868 47.0327L10.3981 46.6076L10.41 46.1904L10.4217 45.7813L10.4326 45.3805L10.4418 44.9882L10.4487 44.6043L10.4526 44.2291L10.4529 43.8625L10.4489 43.5043L10.4401 43.1545L10.4259 42.813L10.406 42.4795L10.3798 42.1537L10.347 41.8355L10.3073 41.5244L10.2604 41.2201L10.2061 40.9222L10.1443 40.6304L10.0748 40.3441L9.99748 40.0631L9.91245 39.7867L9.8197 39.5145L9.71931 39.246L9.61139 38.9809L9.4961 38.7185L9.37365 38.4585L9.24426 38.2003L9.10819 37.9435L8.96573 37.6877L8.81718 37.4323L8.66289 37.1771L8.50318 36.9215L8.33842 36.6653L8.16897 36.408L7.99521 36.1493L7.81749 35.8889L7.63621 35.6265L7.45172 35.3617L7.26439 35.0944L7.07457 34.8243L6.8826 34.5511L6.68883 34.2747L6.49356 33.9948L6.29711 33.7114L6.09977 33.4242L5.90182 33.1331L5.70353 32.838L5.50516 32.5388L5.30694 32.2353L5.10913 31.9275L4.91193 31.6153L4.71558 31.2986L4.52028 30.9774L4.32626 30.6515L4.13372 30.321L3.94287 29.9858L3.75394 29.6459L3.56714 29.3012L3.3827 28.9518L3.20084 28.5975L3.0218 28.2385L2.84583 27.8747L2.67317 27.5061L2.50406 27.1328L2.33874 26.7548L2.17745 26.3722L2.02043 25.9849L1.86794 25.5931L1.72022 25.1968L1.57758 24.7962L1.44026 24.3913L1.30848 23.9822L1.18241 23.569L1.06215 23.1518L0.947806 22.7306L0.839433 22.3057L0.737086 21.877L0.640818 21.4446L0.550683 21.0086L0.466754 20.5691L0.389122 20.1262L0.317909 19.68L0.253269 19.2306L0.195398 18.7781L0.144525 18.3228L0.100892 17.8647L0.0647429 17.4042L0.036327 16.9414L0.0158986 16.4765L0.00370793 16.0098L0 15.5416L0.00501937 15.072L0.0190135 14.6014L0.0422355 14.13L0.0749452 13.6583L0.11741 13.1865L0.169907 12.715L0.232716 12.2442L0.306127 11.7745L0.390431 11.3064L0.48592 10.8402L0.592885 10.3766L0.711614 9.91602L0.842385 9.45899L0.985466 9.00608L1.14111 8.55788L1.30955 8.11497L1.491 7.67798L1.68566 7.24751L1.89367 6.82421L2.11517 6.40871L2.35025 6.00164L2.59898 5.60364L2.86137 5.21535L3.1374 4.83738L3.42701 4.47033L3.73009 4.11481L4.04651 3.77137L4.37606 3.44057L4.71852 3.12292L5.07359 2.8189L5.44098 2.52899L5.8203 2.25359L6.21117 1.99308L6.61316 1.7478L7.02578 1.51807L7.44855 1.30412L7.88092 1.10618L8.32235 0.924415L8.77226 0.758953L9.23005 0.609878L9.69512 0.477233L10.1668 0.361018L10.6446 0.261197L11.1277 0.177694L11.6155 0.110399L12.1075 0.0591688L12.6029 0.0238309L13.1012 0.0041836L13.6017 0L14.1038 0.0110299L14.607 0.0370018L15.1106 0.0776247L15.6141 0.132589L16.117 0.201568L16.6187 0.284215L17.1187 0.380168L17.6165 0.489041L18.1117 0.610425L18.6037 0.743882L19.0921 0.888943L19.5765 1.0451L20.0564 1.21183L20.5314 1.3886L21.0012 1.57483L21.4654 1.76994L21.9236 1.97325L22.3755 2.18397L22.8207 2.40124L23.2589 2.62411L23.6898 2.85155L24.1131 3.08245L24.5286 3.31564L24.9362 3.54991L25.3355 3.78396L25.7266 4.01645L26.1094 4.24599L26.4838 4.47114L26.85 4.69042L27.2081 4.90229L27.5582 5.10527L27.9007 5.29791L28.2359 5.47886L28.5642 5.64686L28.886 5.80074L29.202 5.93945L29.5128 6.06205L29.8189 6.16773L30.1211 6.25578L30.42 6.32565L30.7166 6.3769L31.0115 6.40922L31.3055 6.42245L31.5994 6.41654L31.894 6.3916L32.1901 6.34786L32.4884 6.28567L32.7897 6.20554L33.0948 6.10807L33.4042 5.994L33.7186 5.86418L34.0387 5.71956L34.3649 5.56121L34.6976 5.39028L35.0374 5.20801L35.3845 5.01572L35.7393 4.81478L36.1018 4.60666L36.4723 4.39283L36.8507 4.17483L37.2371 3.95421L37.6313 3.73255L38.0331 3.51143L38.4424 3.29242L38.8586 3.07709L39.2815 2.86696L39.7105 2.66354L40.1452 2.46829L40.585 2.28261L41.0291 2.10783L41.477 1.94524L41.9278 1.79602L42.3809 1.66129L42.8354 1.54206L43.2905 1.43927L43.7453 1.35374L44.1991 1.2862L44.651 1.23729L45.1002 1.20751L45.5458 1.19728L45.987 1.2069L46.423 1.23659L46.853 1.28643L47.2764 1.35643L47.6925 1.44649L48.1005 1.5564L48.4999 1.68589L48.8903 1.83458L49.2709 2.00201L49.6415 2.18766L50.0017 2.39093L50.3512 2.61116L50.6897 2.84761L51.017 3.09952L51.333 3.36605L51.6378 3.64633L51.9313 3.93947L52.2137 4.24452L52.485 4.56054L52.7456 4.88657L52.9957 5.22167L53.2357 5.56483L53.4661 5.91501L53.6873 6.27113L53.9002 6.63211L54.1055 6.99687L54.304 7.36432L54.4965 7.73345L54.684 8.10328L54.8674 8.47288L55.0477 8.84142L55.2258 9.20814L55.4027 9.57237L55.5792 9.93356L55.7562 10.2912L55.9345 10.6451L56.1149 10.9947L56.298 11.34L56.4847 11.6808L56.6755 12.0169L56.8711 12.3484L57.0721 12.6753L57.2789 12.9976L57.4921 13.3157L57.7121 13.6296L57.9391 13.9397L58.1733 14.2463L58.4149 14.5499L58.6639 14.8508L58.9203 15.1496L59.1839 15.4468L59.4544 15.7429L59.7316 16.0385L60.0149 16.3343L60.3038 16.6308L60.5977 16.9286L60.8959 17.2283L61.1977 17.5306L61.5021 17.8359L61.8083 18.1449L62.1153 18.458L62.4221 18.7757L62.7276 19.0984L63.0308 19.4266L63.3305 19.7606L63.6256 20.1007L63.9149 20.447L64.1974 20.7999L64.4718 21.1593L64.7371 21.5255L64.9922 21.8983L65.2361 22.2777L65.4677 22.6636L65.686 23.0558L65.8901 23.4542L66.0791 23.8584L66.2524 24.2682L66.409 24.6831L66.5484 25.1027L66.6699 25.5267L66.773 25.9545L66.8573 26.3856L66.9224 26.8194L66.9681 27.2555L66.994 27.6933L67 28.1321L66.9861 28.5713L66.9524 29.0105L66.8988 29.4488L66.8255 29.8859L66.7327 30.321Z" fill="#B9009B"/>
<path d="M39.2064 40.2065C40.305 40.2065 41.1955 39.316 41.1955 38.2174C41.1955 37.1188 40.305 36.2283 39.2064 36.2283C38.1078 36.2283 37.2173 37.1188 37.2173 38.2174C37.2173 39.316 38.1078 40.2065 39.2064 40.2065Z" fill="white"/>
<path d="M39.2064 32.25C40.305 32.25 41.1955 31.3594 41.1955 30.2609C41.1955 29.1623 40.305 28.2717 39.2064 28.2717C38.1078 28.2717 37.2173 29.1623 37.2173 30.2609C37.2173 31.3594 38.1078 32.25 39.2064 32.25Z" fill="white"/>
<path d="M39.2064 24.2934C40.305 24.2934 41.1955 23.4029 41.1955 22.3043C41.1955 21.2057 40.305 20.3152 39.2064 20.3152C38.1078 20.3152 37.2173 21.2057 37.2173 22.3043C37.2173 23.4029 38.1078 24.2934 39.2064 24.2934Z" fill="white"/>
<path d="M46.5 19.6522C46.5 18.9488 46.2206 18.2742 45.7232 17.7768C45.2258 17.2794 44.5512 17 43.8478 17H18.6522C17.9488 17 17.2742 17.2794 16.7768 17.7768C16.2794 18.2742 16 18.9488 16 19.6522V24.9565C16.0049 25.4235 16.1329 25.881 16.3713 26.2826C16.1329 26.6842 16.0049 27.1417 16 27.6087V32.913C16.0049 33.3801 16.1329 33.8375 16.3713 34.2391C16.1329 34.6408 16.0049 35.0982 16 35.5652V40.8696C16 41.573 16.2794 42.2476 16.7768 42.7449C17.2742 43.2423 17.9488 43.5217 18.6522 43.5217H43.8478C44.5512 43.5217 45.2258 43.2423 45.7232 42.7449C46.2206 42.2476 46.5 41.573 46.5 40.8696V35.5652C46.4951 35.0982 46.3671 34.6408 46.1287 34.2391C46.3671 33.8375 46.4951 33.3801 46.5 32.913V27.6087C46.4951 27.1417 46.3671 26.6842 46.1287 26.2826C46.3671 25.881 46.4951 25.4235 46.5 24.9565V19.6522ZM43.8478 40.8696H18.6522V35.5652H43.8478V40.8696ZM18.6522 19.6522H43.8478V24.9565H18.6522V19.6522ZM43.8478 32.913H18.6522V27.6087H43.8478V32.913Z" fill="white"/>
<path d="M21.3042 20.9783C21.1283 20.9783 20.9597 21.0481 20.8353 21.1725C20.711 21.2968 20.6411 21.4655 20.6411 21.6413V22.9674C20.6411 23.1433 20.711 23.3119 20.8353 23.4362C20.9597 23.5606 21.1283 23.6304 21.3042 23.6304C21.48 23.6304 21.6487 23.5606 21.773 23.4362C21.8973 23.3119 21.9672 23.1433 21.9672 22.9674V21.6413C21.9672 21.4655 21.8973 21.2968 21.773 21.1725C21.6487 21.0481 21.48 20.9783 21.3042 20.9783Z" fill="white"/>
<path d="M23.2934 20.9783C23.1176 20.9783 22.9489 21.0481 22.8246 21.1725C22.7002 21.2968 22.6304 21.4655 22.6304 21.6413V22.9674C22.6304 23.1433 22.7002 23.3119 22.8246 23.4362C22.9489 23.5606 23.1176 23.6304 23.2934 23.6304C23.4693 23.6304 23.6379 23.5606 23.7623 23.4362C23.8866 23.3119 23.9565 23.1433 23.9565 22.9674V21.6413C23.9565 21.4655 23.8866 21.2968 23.7623 21.1725C23.6379 21.0481 23.4693 20.9783 23.2934 20.9783Z" fill="white"/>
<path d="M25.2827 20.9783C25.1068 20.9783 24.9382 21.0481 24.8138 21.1725C24.6895 21.2968 24.6196 21.4655 24.6196 21.6413V22.9674C24.6196 23.1433 24.6895 23.3119 24.8138 23.4362C24.9382 23.5606 25.1068 23.6304 25.2827 23.6304C25.4585 23.6304 25.6272 23.5606 25.7515 23.4362C25.8759 23.3119 25.9457 23.1433 25.9457 22.9674V21.6413C25.9457 21.4655 25.8759 21.2968 25.7515 21.1725C25.6272 21.0481 25.4585 20.9783 25.2827 20.9783Z" fill="white"/>
<path d="M21.3042 31.587C21.48 31.587 21.6487 31.5171 21.773 31.3928C21.8973 31.2684 21.9672 31.0998 21.9672 30.9239V29.5979C21.9672 29.422 21.8973 29.2534 21.773 29.129C21.6487 29.0047 21.48 28.9348 21.3042 28.9348C21.1283 28.9348 20.9597 29.0047 20.8353 29.129C20.711 29.2534 20.6411 29.422 20.6411 29.5979V30.9239C20.6411 31.0998 20.711 31.2684 20.8353 31.3928C20.9597 31.5171 21.1283 31.587 21.3042 31.587Z" fill="white"/>
<path d="M23.2934 31.587C23.4693 31.587 23.6379 31.5171 23.7623 31.3928C23.8866 31.2684 23.9565 31.0998 23.9565 30.9239V29.5979C23.9565 29.422 23.8866 29.2534 23.7623 29.129C23.6379 29.0047 23.4693 28.9348 23.2934 28.9348C23.1176 28.9348 22.9489 29.0047 22.8246 29.129C22.7002 29.2534 22.6304 29.422 22.6304 29.5979V30.9239C22.6304 31.0998 22.7002 31.2684 22.8246 31.3928C22.9489 31.5171 23.1176 31.587 23.2934 31.587Z" fill="white"/>
<path d="M25.2827 31.587C25.4585 31.587 25.6272 31.5171 25.7515 31.3928C25.8759 31.2684 25.9457 31.0998 25.9457 30.9239V29.5979C25.9457 29.422 25.8759 29.2534 25.7515 29.129C25.6272 29.0047 25.4585 28.9348 25.2827 28.9348C25.1068 28.9348 24.9382 29.0047 24.8138 29.129C24.6895 29.2534 24.6196 29.422 24.6196 29.5979V30.9239C24.6196 31.0998 24.6895 31.2684 24.8138 31.3928C24.9382 31.5171 25.1068 31.587 25.2827 31.587Z" fill="white"/>
<path d="M21.3042 39.5435C21.48 39.5435 21.6487 39.4737 21.773 39.3493C21.8973 39.225 21.9672 39.0563 21.9672 38.8805V37.5544C21.9672 37.3786 21.8973 37.2099 21.773 37.0856C21.6487 36.9612 21.48 36.8914 21.3042 36.8914C21.1283 36.8914 20.9597 36.9612 20.8353 37.0856C20.711 37.2099 20.6411 37.3786 20.6411 37.5544V38.8805C20.6411 39.0563 20.711 39.225 20.8353 39.3493C20.9597 39.4737 21.1283 39.5435 21.3042 39.5435Z" fill="white"/>
<path d="M23.2934 39.5435C23.4693 39.5435 23.6379 39.4737 23.7623 39.3493C23.8866 39.225 23.9565 39.0563 23.9565 38.8805V37.5544C23.9565 37.3786 23.8866 37.2099 23.7623 37.0856C23.6379 36.9612 23.4693 36.8914 23.2934 36.8914C23.1176 36.8914 22.9489 36.9612 22.8246 37.0856C22.7002 37.2099 22.6304 37.3786 22.6304 37.5544V38.8805C22.6304 39.0563 22.7002 39.225 22.8246 39.3493C22.9489 39.4737 23.1176 39.5435 23.2934 39.5435Z" fill="white"/>
<path d="M25.2827 39.5435C25.4585 39.5435 25.6272 39.4737 25.7515 39.3493C25.8759 39.225 25.9457 39.0563 25.9457 38.8805V37.5544C25.9457 37.3786 25.8759 37.2099 25.7515 37.0856C25.6272 36.9612 25.4585 36.8914 25.2827 36.8914C25.1068 36.8914 24.9382 36.9612 24.8138 37.0856C24.6895 37.2099 24.6196 37.3786 24.6196 37.5544V38.8805C24.6196 39.0563 24.6895 39.225 24.8138 39.3493C24.9382 39.4737 25.1068 39.5435 25.2827 39.5435Z" fill="white"/>
</svg>
