<svg width="58" height="61" viewBox="0 0 58 61" fill="none" xmlns="http://www.w3.org/2000/svg">
<path fill-rule="evenodd" clip-rule="evenodd" d="M57.9379 29.847L57.9 30.1839L57.8541 30.5198L57.8006 30.8546L57.74 31.1881L57.6727 31.5202L57.5992 31.8508L57.52 32.1797L57.4355 32.507L57.3462 32.8326L57.2525 33.1564L57.1547 33.4784L57.0532 33.7986L56.9484 34.117L56.8405 34.4336L56.7299 34.7485L56.6167 35.0616L56.5013 35.3731L56.3837 35.6828L56.2641 35.991L56.1429 36.2976L56.02 36.6026L55.8957 36.9063L55.7701 37.2085L55.6436 37.5095L55.5162 37.8093L55.3882 38.108L55.2598 38.4059L55.1312 38.7029L55.0028 38.9993L54.8747 39.2952L54.7471 39.5908L54.6204 39.8864L54.4945 40.182L54.3698 40.4779L54.2462 40.7743L54.1238 41.0712L54.0026 41.3689L53.8825 41.6674L53.7633 41.9668L53.645 42.2672L53.5272 42.5685L53.4096 42.8709L53.292 43.1741L53.174 43.4782L53.0551 43.783L52.935 44.0883L52.8132 44.394L52.6892 44.6998L52.5627 45.0055L52.4331 45.3107L52.2999 45.6153L52.1628 45.9187L52.0213 46.2207L51.8749 46.5209L51.7234 46.819L51.5664 47.1145L51.4035 47.407L51.2344 47.6962L51.059 47.9817L50.8771 48.2632L50.6884 48.5402L50.4929 48.8124L50.2905 49.0795L50.0813 49.3413L49.8652 49.5975L49.6422 49.8477L49.4126 50.092L49.1765 50.3299L48.934 50.5616L48.6854 50.7868L48.4309 51.0055L48.1708 51.2176L47.9054 51.4233L47.6351 51.6226L47.3601 51.8156L47.0808 52.0023L46.7976 52.1831L46.5109 52.358L46.221 52.5273L45.9282 52.6913L45.6329 52.8502L45.3356 53.0043L45.0364 53.1541L44.7358 53.2996L44.434 53.4415L44.1314 53.5799L43.8281 53.7152L43.5245 53.8478L43.2207 53.978L42.917 54.1062L42.6134 54.2327L42.3102 54.3578L42.0074 54.4818L41.7052 54.605L41.4035 54.7278L41.1025 54.8502L40.8021 54.9725L40.5024 55.095L40.2032 55.2177L39.9046 55.3408L39.6064 55.4644L39.3086 55.5886L39.0111 55.7134L38.7138 55.8387L38.4165 55.9647L38.1191 56.0912L37.8214 56.2181L37.5235 56.3454L37.2249 56.4728L36.9258 56.6003L36.6258 56.7276L36.3249 56.8546L36.023 56.9809L35.7199 57.1066L35.4155 57.2315L35.1099 57.3557L34.803 57.4791L34.4948 57.6019L34.1852 57.7242L33.8741 57.8462L33.5616 57.9679L33.2476 58.0894L32.932 58.2106L32.6148 58.3315L32.2957 58.4521L31.9749 58.5723L31.6522 58.692L31.3275 58.8111L31.0007 58.9295L30.6719 59.047L30.3408 59.1635L30.0075 59.2789L29.672 59.3929L29.3341 59.5053L28.9938 59.616L28.6512 59.7248L28.3061 59.8313L27.9586 59.9353L27.6086 60.0366L27.2563 60.1349L26.9015 60.2298L26.5444 60.321L26.185 60.4082L25.8233 60.491L25.4595 60.5691L25.0937 60.6421L24.726 60.7095L24.3564 60.7709L23.9853 60.8261L23.6128 60.8744L23.239 60.9156L22.8642 60.9492L22.4886 60.9747L22.1125 60.9919L21.7361 61.0002L21.3598 60.9994L20.9839 60.989L20.6086 60.9688L20.2343 60.9383L19.8613 60.8973L19.4901 60.8455L19.1209 60.7828L18.7541 60.7089L18.3901 60.6236L18.0292 60.5268L17.6719 60.4185L17.3184 60.2986L16.9691 60.1671L16.6243 60.024L16.2844 59.8695L15.9497 59.7036L15.6204 59.5265L15.2969 59.3384L14.9793 59.1396L14.668 58.9304L14.3631 58.711L14.0647 58.4818L13.7732 58.2432L13.4885 57.9955L13.2107 57.7393L12.94 57.475L12.6764 57.2029L12.4199 56.9237L12.1705 56.6377L11.9282 56.3455L11.6928 56.0476L11.4644 55.7444L11.2428 55.4365L11.0279 55.1242L10.8195 54.8082L10.6176 54.4888L10.4219 54.1666L10.2323 53.8418L10.0486 53.5149L9.87065 53.1863L9.69819 52.8564L9.53106 52.5255L9.36905 52.1938L9.21199 51.8618L9.05966 51.5296L8.91187 51.1975L8.76844 50.8657L8.62915 50.5346L8.49384 50.2041L8.36232 49.8745L8.23449 49.546L8.11023 49.2184L7.98947 48.892L7.87214 48.5667L7.75819 48.2426L7.64758 47.9196L7.54038 47.5976L7.43668 47.2766L7.33662 46.9564L7.24041 46.6369L7.14825 46.3179L7.06038 45.9993L6.97705 45.6808L6.89854 45.3624L6.8251 45.0438L6.75701 44.7252L6.6945 44.4062L6.63783 44.0869L6.58723 43.7673L6.54289 43.4473L6.505 43.127L6.4737 42.8063L6.44914 42.4855L6.43138 42.1645L6.42051 41.8435L6.41653 41.5226L6.41944 41.2019L6.42919 40.8817L6.44569 40.5621L6.46882 40.2434L6.49841 39.9256L6.53428 39.6091L6.57616 39.294L6.6238 38.9807L6.67687 38.6692L6.73503 38.3598L6.7979 38.0528L6.86505 37.7483L6.93602 37.4465L7.01034 37.1477L7.08749 36.852L7.16691 36.5595L7.24804 36.2705L7.33028 35.985L7.41299 35.7032L7.49554 35.4251L7.57725 35.1508L7.65743 34.8804L7.7354 34.6138L7.81044 34.3511L7.88182 34.0921L7.94883 33.8369L8.01073 33.5853L8.0668 33.3371L8.11631 33.0923L8.15856 32.8506L8.19284 32.6118L8.21848 32.3756L8.23481 32.1417L8.24122 31.9099L8.2371 31.6797L8.22189 31.4507L8.19509 31.2227L8.1562 30.9951L8.10484 30.7674L8.04062 30.5393L7.96327 30.3102L7.87254 30.0796L7.76829 29.847L7.65042 29.6119L7.51895 29.3737L7.37396 29.132L7.2156 28.8861L7.04414 28.6356L6.85992 28.3801L6.66338 28.1189L6.45504 27.8517L6.23554 27.578L6.00557 27.2975L5.76593 27.0098L5.51749 26.7145L5.26121 26.4115L4.99812 26.1005L4.72932 25.7814L4.45593 25.454L4.17917 25.1184L3.90026 24.7744L3.62045 24.4222L3.341 24.062L3.0632 23.6938L2.78836 23.3179L2.51791 22.9348L2.25332 22.5447L1.99612 22.1482L1.74781 21.7458L1.50994 21.3382L1.28404 20.9262L1.07163 20.5105L0.874262 20.0919L0.693436 19.6715L0.530615 19.2502L0.387192 18.8292L0.264481 18.4094L0.163695 17.9921L0.0859391 17.5784L0.0321939 17.1696L0.00331033 16.7667L0 16.371L0.0228295 15.9837L0.0722161 15.6059L0.148425 15.2387L0.251568 14.8832L0.381603 14.5404L0.538338 14.2113L0.721429 13.8966L0.93039 13.5973L1.16459 13.314L1.42328 13.0474L1.70556 12.798L2.01042 12.5661L2.33676 12.3522L2.68336 12.1563L3.0489 11.9787L3.43201 11.8193L3.83123 11.678L4.24503 11.5544L4.67188 11.4484L5.11016 11.3593L5.55827 11.2866L6.01456 11.2297L6.47742 11.1878L6.94523 11.1601L7.41638 11.1455L7.88932 11.1431L8.36251 11.1518L8.83449 11.1703L9.30385 11.1976L9.76924 11.2324L10.2294 11.2733L10.6831 11.319L11.1294 11.3682L11.5671 11.4196L11.9954 11.4718L12.4134 11.5235L12.8206 11.5733L13.2163 11.62L13.6 11.6624L13.9713 11.6991L14.33 11.7292L14.6759 11.7516L15.0089 11.7651L15.3292 11.7689L15.6367 11.7622L15.9318 11.7441L16.2148 11.714L16.486 11.6714L16.7459 11.6156L16.9951 11.5465L17.2341 11.4636L17.4635 11.3668L17.6842 11.2561L17.8968 11.1313L18.1021 10.9927L18.3008 10.8404L18.4939 10.6748L18.682 10.4961L18.8661 10.3049L19.0469 10.1017L19.2252 9.88706L19.4019 9.66167L19.5778 9.42624L19.7535 9.18157L19.9298 8.92847L20.1074 8.66783L20.287 8.40056L20.4692 8.12762L20.6545 7.84999L20.8435 7.56872L21.0367 7.28488L21.2346 6.99956L21.4376 6.71391L21.646 6.42903L21.8601 6.14588L22.08 5.86533L22.306 5.5881L22.538 5.31479L22.776 5.04585L23.02 4.78164L23.2699 4.52251L23.5257 4.26879L23.7873 4.02084L24.0545 3.77898L24.3273 3.54353L24.6055 3.3148L24.889 3.09305L25.1777 2.87852L25.4713 2.67144L25.7696 2.47199L26.0726 2.28031L26.38 2.09653L26.6917 1.92074L27.0073 1.75298L27.3268 1.5933L27.6498 1.4417L27.9763 1.29816L28.3061 1.16263L28.6389 1.03507L28.9745 0.915394L29.3128 0.803521L29.6536 0.699355L29.9967 0.602798L30.342 0.513744L30.6893 0.432092L31.0384 0.357742L31.3893 0.290597L31.7417 0.230572L32.0955 0.177588L32.4506 0.13158L32.8069 0.0924969L33.1641 0.0603015L33.5223 0.0349733L33.8812 0.0165087L34.2406 0.00492165L34.6005 0.000244141L34.9607 0.00252586L35.321 0.0118341L35.6813 0.0282531L36.0414 0.0518832L36.4011 0.0828397L36.7601 0.121252L37.1184 0.16726L37.4756 0.221015L37.8315 0.282678L38.1859 0.352412L38.5386 0.430386L38.8892 0.516771L39.2375 0.611734L39.5832 0.715438L39.926 0.82804L40.2655 0.949687L40.6016 1.08051L40.9337 1.22063L41.2617 1.37014L41.5853 1.52912L41.9039 1.69763L42.2175 1.87569L42.5256 2.06329L42.8279 2.26041L43.1242 2.46698L43.4142 2.68289L43.6976 2.908L43.9741 3.14215L44.2437 3.38511L44.506 3.63665L44.7609 3.89645L45.0083 4.1642L45.2481 4.43954L45.4803 4.72206L45.7048 5.01132L45.9216 5.30688L46.1309 5.60822L46.3327 5.91485L46.5272 6.22623L46.7146 6.5418L46.8951 6.86103L47.0689 7.18334L47.2364 7.50819L47.3978 7.83503L47.5535 8.16336L47.7038 8.49267L47.8491 8.82253L47.9897 9.15253L48.1258 9.48229L48.2579 9.81141L48.3865 10.1395L48.512 10.466L48.6348 10.7907L48.7557 11.113L48.8751 11.4326L48.9937 11.7491L49.1119 12.0622L49.2303 12.3717L49.3495 12.6773L49.47 12.9788L49.5922 13.2763L49.7166 13.5695L49.8437 13.8585L49.9738 14.1432L50.1073 14.4237L50.2447 14.7L50.3861 14.9723L50.5319 15.2407L50.6823 15.5054L50.8376 15.7666L50.9978 16.0246L51.1631 16.2795L51.3335 16.5318L51.509 16.7817L51.6896 17.0295L51.8752 17.2756L52.0656 17.5205L52.2607 17.7644L52.46 18.0077L52.6635 18.2509L52.8706 18.4944L53.0809 18.7385L53.294 18.9836L53.5095 19.2302L53.7266 19.4785L53.945 19.7289L54.1638 19.9819L54.3826 20.2376L54.6006 20.4964L54.8171 20.7585L55.0315 21.0241L55.243 21.2935L55.451 21.5669L55.6546 21.8442L55.8533 22.1258L56.0463 22.4115L56.233 22.7015L56.4128 22.9957L56.5849 23.2941L56.749 23.5965L56.9043 23.903L57.0506 24.2134L57.1873 24.5274L57.314 24.8449L57.4304 25.1656L57.5363 25.4894L57.6315 25.816L57.7157 26.1451L57.789 26.4764L57.8512 26.8096L57.9024 27.1444L57.9428 27.4806L57.9723 27.8178L57.9913 28.1557L58 28.4941L57.9986 28.8327L57.9876 29.1712L57.9672 29.5094L57.9379 29.847Z" fill="url(#paint0_linear_17_526)"/>
<path d="M47.3414 39.1858L40.2517 33.2122C38.8532 32.0338 36.7644 31.8042 35.0813 32.5031L28.6274 27.0651V23.8972L20.8778 19L17.003 22.2648L22.8152 28.7945H26.575L33.0289 34.2324C32.2055 35.6506 32.4719 37.4105 33.8704 38.5889L40.9601 44.5626C41.844 45.3073 43.2729 45.3073 44.1507 44.5626L47.3414 41.8742C48.2193 41.1294 48.2193 39.9255 47.3414 39.1858ZM37.0853 30.4779C38.7987 30.4779 40.4091 31.039 41.62 32.0593L42.7946 33.0489C43.7511 32.697 44.6593 32.2072 45.4464 31.5441C47.6925 29.6515 48.4554 26.9886 47.741 24.5706C47.6078 24.1115 46.9236 23.9534 46.524 24.29L42.0196 28.0854L37.9087 27.5089L37.2246 24.0452L41.729 20.2498C42.1286 19.9131 41.9348 19.3367 41.3839 19.2194C38.5141 18.6225 35.3538 19.2653 33.1137 21.1527C31.3882 22.6066 30.5769 24.5247 30.6193 26.4377L35.5899 30.6258C36.0803 30.5289 36.5889 30.4779 37.0853 30.4779ZM30.7948 34.661L27.362 31.7685L18.1352 39.548C16.6216 40.8233 16.6216 42.8893 18.1352 44.1647C19.6488 45.44 22.1008 45.44 23.6144 44.1647L31.0976 37.8595C30.6374 36.8443 30.4982 35.7373 30.7948 34.661ZM20.8778 43.0781C20.0786 43.0781 19.4248 42.5271 19.4248 41.8538C19.4248 41.1753 20.0726 40.6295 20.8778 40.6295C21.683 40.6295 22.3309 41.1753 22.3309 41.8538C22.3309 42.5271 21.683 43.0781 20.8778 43.0781Z" fill="#FEFEFE"/>
<defs>
<linearGradient id="paint0_linear_17_526" x1="-29.0213" y1="-0.675283" x2="-27.6018" y2="-61.6572" gradientUnits="userSpaceOnUse">
<stop stop-color="#5E1724"/>
<stop offset="1" stop-color="#1CBA0A"/>
</linearGradient>
</defs>
</svg>
