<svg width="58" height="54" viewBox="0 0 58 54" fill="none" xmlns="http://www.w3.org/2000/svg">
<path fill-rule="evenodd" clip-rule="evenodd" d="M56.3372 22.9896L56.4111 23.2527L56.4852 23.5178L56.5594 23.7849L56.6334 24.0542L56.7071 24.3257L56.7803 24.5995L56.8527 24.8757L56.9242 25.1543L56.9944 25.4352L57.0632 25.7187L57.1303 26.0045L57.1955 26.2929L57.2585 26.5837L57.3191 26.8769L57.3772 27.1726L57.4323 27.4706L57.4844 27.7709L57.5331 28.0734L57.5783 28.3782L57.6197 28.685L57.657 28.9939L57.6902 29.3047L57.7189 29.6173L57.743 29.9315L57.7623 30.2474L57.7766 30.5647L57.7857 30.8833L57.7895 31.2031L57.7878 31.5239L57.7804 31.8456L57.7673 32.168L57.7483 32.4909L57.7234 32.8143L57.6923 33.138L57.6551 33.4617L57.6117 33.7853L57.562 34.1088L57.5059 34.4318L57.4436 34.7544L57.3748 35.0762L57.2996 35.3972L57.2181 35.7172L57.1303 36.0362L57.0361 36.3539L56.9357 36.6702L56.829 36.9851L56.7163 37.2984L56.5974 37.61L56.4726 37.9199L56.342 38.228L56.2056 38.5342L56.0635 38.8384L55.916 39.1407L55.763 39.441L55.6049 39.7392L55.4416 40.0354L55.2733 40.3296L55.1003 40.6217L54.9225 40.9119L54.7402 41.2001L54.5534 41.4863L54.3624 41.7707L54.1673 42.0532L53.9681 42.334L53.765 42.613L53.5581 42.8905L53.3476 43.1663L53.1334 43.4406L52.9158 43.7135L52.6947 43.9851L52.4703 44.2554L52.2426 44.5244L52.0116 44.7924L51.7775 45.0592L51.5402 45.325L51.2997 45.5898L51.0561 45.8537L50.8094 46.1166L50.5594 46.3787L50.3064 46.6398L50.0501 46.9L49.7905 47.1593L49.5277 47.4177L49.2615 47.675L48.9919 47.9312L48.7188 48.1862L48.4422 48.4398L48.1618 48.6918L47.8777 48.9421L47.5897 49.1903L47.2977 49.4364L47.0016 49.6799L46.7014 49.9206L46.397 50.1582L46.0882 50.3923L45.7751 50.6225L45.4576 50.8485L45.1356 51.0699L44.8091 51.2863L44.4781 51.4973L44.1427 51.7024L43.8028 51.9013L43.4585 52.0935L43.1098 52.2786L42.7569 52.4563L42.3999 52.626L42.0388 52.7874L41.6739 52.9401L41.3053 53.0838L40.9332 53.218L40.5577 53.3425L40.1791 53.4569L39.7977 53.561L39.4136 53.6545L39.0272 53.7371L38.6387 53.8088L38.2485 53.8692L37.8567 53.9183L37.4638 53.9559L37.0699 53.9821L36.6755 53.9968L36.2808 54L35.8862 53.9918L35.4919 53.9723L35.0983 53.9416L34.7057 53.8999L34.3142 53.8474L33.9243 53.7843L33.5361 53.7109L33.1499 53.6274L32.7659 53.5342L32.3845 53.4315L32.0056 53.3197L31.6296 53.1992L31.2566 53.0704L30.8868 52.9335L30.5202 52.7892L30.157 52.6376L29.7972 52.4793L29.4409 52.3148L29.0882 52.1443L28.7391 51.9685L28.3935 51.7877L28.0515 51.6023L27.713 51.4128L27.378 51.2197L27.0463 51.0232L26.7179 50.8239L26.3926 50.6222L26.0703 50.4184L25.751 50.2129L25.4343 50.006L25.1202 49.7981L24.8085 49.5895L24.4989 49.3805L24.1913 49.1713L23.8855 48.9622L23.5812 48.7534L23.2783 48.5452L22.9765 48.3376L22.6756 48.1308L22.3755 47.9249L22.0759 47.72L21.7766 47.5162L21.4774 47.3135L21.1782 47.112L20.8787 46.9115L20.5788 46.7122L20.2783 46.5139L19.977 46.3167L19.6747 46.1205L19.3713 45.9253L19.0667 45.7309L18.7606 45.5372L18.4531 45.3441L18.1439 45.1516L17.833 44.9593L17.5202 44.7672L17.2056 44.5751L16.8891 44.3828L16.5706 44.1901L16.2502 43.9967L15.9278 43.8024L15.6035 43.607L15.2773 43.4103L14.9494 43.2119L14.6197 43.0116L14.2884 42.8092L13.9557 42.6044L13.6216 42.3969L13.2864 42.1865L12.9502 41.9729L12.6133 41.7559L12.2758 41.5351L11.9379 41.3104L11.5999 41.0815L11.2621 40.8483L10.9247 40.6104L10.5879 40.3678L10.2521 40.1201L9.91748 39.8674L9.58433 39.6093L9.25292 39.3458L8.92352 39.0768L8.59638 38.8022L8.27176 38.5218L7.9499 38.2356L7.63105 37.9436L7.31546 37.6457L7.00338 37.3419L6.69506 37.0322L6.39077 36.7165L6.09075 36.3948L5.79527 36.0672L5.50458 35.7336L5.21894 35.3942L4.93859 35.0488L4.66379 34.6977L4.39479 34.3407L4.13183 33.9781L3.87515 33.6099L3.62498 33.2361L3.38155 32.8569L3.14508 32.4724L2.9158 32.0827L2.6939 31.6879L2.47961 31.2882L2.2731 30.8837L2.07458 30.4746L1.88423 30.061L1.70221 29.6431L1.52869 29.2211L1.36383 28.7951L1.20779 28.3653L1.0607 27.932L0.922693 27.4953L0.793898 27.0555L0.674429 26.6126L0.564396 26.1671L0.463898 25.7189L0.373028 25.2685L0.291869 24.816L0.220498 24.3616L0.158982 23.9056L0.107382 23.4482L0.0657503 22.9896L0.0341357 22.5301L0.0125935 22.0699L0.00118993 21.6092L0 21.1482L0.00910669 20.6874L0.0285993 20.2267L0.058572 19.7667L0.0991224 19.3074L0.15035 18.8492L0.212353 18.3924L0.285231 17.9372L0.369078 17.4839L0.463985 17.0328L0.570035 16.5843L0.687306 16.1386L0.815864 15.696L0.955765 15.257L1.10705 14.8217L1.26976 14.3905L1.4439 13.9637L1.62948 13.5418L1.82647 13.1249L2.03484 12.7135L2.25454 12.3079L2.48549 11.9083L2.7276 11.5152L2.98075 11.1288L3.2448 10.7495L3.5196 10.3775L3.80496 10.0131L4.10068 9.65671L4.40653 9.30849L4.72227 8.96873L5.04762 8.63767L5.3823 8.31553L5.72599 8.00255L6.07836 7.69889L6.43906 7.40475L6.80772 7.12028L7.18396 6.8456L7.56738 6.58083L7.95755 6.32607L8.35406 6.08138L8.75645 5.84679L9.16429 5.62234L9.57711 5.40802L9.99446 5.2038L10.4159 5.00964L10.8409 4.82547L11.269 4.65119L11.6998 4.48668L12.1327 4.33181L12.5674 4.18641L13.0034 4.05031L13.4402 3.92329L13.8773 3.80514L14.3144 3.69562L14.751 3.59446L15.1867 3.50139L15.6211 3.41612L16.0538 3.33833L16.4845 3.26771L16.9127 3.20393L17.3383 3.14663L17.7608 3.09547L18.18 3.05009L18.5955 3.01011L19.0072 2.97517L19.4148 2.94488L19.8181 2.91887L20.2168 2.89676L20.6109 2.87816L21.0003 2.86271L21.3846 2.85003L21.764 2.83975L22.1382 2.83152L22.5073 2.82499L22.8713 2.81981L23.23 2.81566L23.5835 2.81221L23.9319 2.80918L24.2752 2.80626L24.6134 2.80319L24.9467 2.7997L25.2751 2.79553L25.5988 2.79041L25.9177 2.78411L26.2322 2.77639L26.5423 2.76701L26.8481 2.75576L27.1498 2.74243L27.4476 2.72684L27.7417 2.7088L28.0321 2.68816L28.3193 2.66478L28.6032 2.63854L28.8842 2.60932L29.1625 2.57706L29.4383 2.54167L29.7118 2.50311L29.9833 2.46138L30.2529 2.41646L30.521 2.36837L30.7877 2.31716L31.0534 2.26289L31.3182 2.20566L31.5823 2.14555L31.8461 2.08271L32.1097 2.01728L32.3733 1.94941L32.6372 1.8793L32.9016 1.80715L33.1666 1.73317L33.4324 1.65759L33.6992 1.58064L33.9672 1.50259L34.2364 1.4237L34.5072 1.34423L34.7795 1.26447L35.0534 1.18469L35.3291 1.10517L35.6067 1.02619L35.8862 0.948042L36.1677 0.870989L36.4512 0.795306L36.7367 0.721272L37.0243 0.64917L37.314 0.57929L37.6057 0.511929L37.8995 0.447384L38.1953 0.385958L38.493 0.327954L38.7926 0.273673L39.094 0.223419L39.3971 0.17749L39.7018 0.136183L40.008 0.0997882L40.3155 0.0685915L40.6243 0.0428708L40.934 0.0228961L41.2446 0.00892791L41.5559 0.00121633L41.8677 0L42.1797 0.00550511L42.4918 0.0179445L42.8037 0.0375166L43.1153 0.064405L43.4262 0.0987773L43.7363 0.140785L44.0453 0.190561L44.3529 0.248223L44.6588 0.313868L44.963 0.387576L45.265 0.469408L45.5646 0.559406L45.8616 0.657592L46.1557 0.763969L46.4467 0.878521L46.7343 1.00121L47.0183 1.13199L47.2985 1.27078L47.5747 1.41749L47.8466 1.57201L48.114 1.73422L48.3768 1.90397L48.6347 2.0811L48.8876 2.26546L49.1354 2.45687L49.3778 2.65514L49.6147 2.86009L49.846 3.07151L50.0716 3.2892L50.2913 3.51293L50.505 3.74248L50.7127 3.97761L50.9143 4.21809L51.1096 4.46367L51.2987 4.71409L51.4816 4.9691L51.6581 5.22844L51.8283 5.49184L51.9923 5.75902L52.1499 6.02973L52.3013 6.30367L52.4465 6.58059L52.5856 6.86019L52.7186 7.14222L52.8457 7.4264L52.967 7.71245L53.0826 8.00012L53.1925 8.28914L53.2971 8.57925L53.3964 8.87021L53.4906 9.16177L53.5799 9.4537L53.6646 9.74577L53.7447 10.0378L53.8205 10.3295L53.8923 10.6207L53.9602 10.9113L54.0245 11.2011L54.0854 11.4899L54.1432 11.7775L54.198 12.0639L54.2502 12.349L54.2999 12.6325L54.3474 12.9146L54.3929 13.195L54.4366 13.4737L54.4788 13.7507L54.5196 14.0259L54.5594 14.2993L54.5983 14.5709L54.6365 14.8407L54.6742 15.1087L54.7117 15.3749L54.7492 15.6394L54.7868 15.9021L54.8247 16.1632L54.8632 16.4227L54.9023 16.6807L54.9423 16.9372L54.9832 17.1924L55.0253 17.4464L55.0686 17.6992L55.1132 17.951L55.1593 18.202L55.2069 18.4521L55.2561 18.7016L55.307 18.9507L55.3596 19.1994L55.4139 19.4479L55.47 19.6963L55.5278 19.9449L55.5873 20.1937L55.6485 20.4429L55.7114 20.6927L55.7759 20.9431L55.8419 21.1945L55.9093 21.4468L55.978 21.7003L56.048 21.9551L56.119 22.2113L56.191 22.469L56.2638 22.7284L56.3372 22.9896Z" fill="#FDA754"/>
<path d="M37.7667 12H26.2333C25 12 24 12.8595 24 13.9195V38.7295C24 39.7895 25 40.649 26.2333 40.649H37.7667C39 40.649 40 39.7895 40 38.7295V13.9195C40 12.8595 39 12 37.7667 12ZM30.6667 13.5757C30.6667 13.4038 30.8333 13.2892 31.0333 13.2892H32.9667C33.1667 13.2892 33.3333 13.4038 33.3333 13.5757V14.12C33.3333 14.2919 33.1667 14.4352 32.9667 14.4352H31.0333C30.8333 14.4352 30.6667 14.2919 30.6667 14.12V13.5757ZM32.1667 39.3598C31.3667 39.3598 30.7 38.8155 30.7 38.1279C30.7 37.4403 31.3667 36.8673 32.1667 36.8673C32.9667 36.8673 33.6 37.4117 33.6 38.1279C33.6 38.8155 32.9667 39.3598 32.1667 39.3598ZM38.6667 36.0652H25.3333V15.4379H38.6667V36.0652Z" fill="white"/>
</svg>
