<svg width="46" height="49" viewBox="0 0 46 49" fill="none" xmlns="http://www.w3.org/2000/svg">
<path fill-rule="evenodd" clip-rule="evenodd" d="M44.6438 24.4922L44.6915 24.7886L44.7418 25.0862L44.7947 25.3853L44.85 25.6859L44.9076 25.9883L44.9672 26.2926L45.0286 26.5989L45.0915 26.9074L45.1556 27.2181L45.2205 27.5311L45.2859 27.8466L45.3513 28.1645L45.4163 28.4849L45.4804 28.8077L45.5432 29.1331L45.6041 29.4608L45.6626 29.7909L45.7182 30.1233L45.7704 30.4577L45.8186 30.7942L45.8622 31.1324L45.9009 31.4723L45.9339 31.8135L45.9608 32.1559L45.9811 32.4992L45.9944 32.843L46 33.1871L45.9976 33.5311L45.9868 33.8748L45.967 34.2176L45.9381 34.5594L45.8995 34.8996L45.8511 35.2379L45.7925 35.5739L45.7234 35.9071L45.6437 36.2373L45.5533 36.564L45.4519 36.8867L45.3395 37.2051L45.2161 37.5189L45.0816 37.8276L44.9362 38.1309L44.7798 38.4284L44.6127 38.7199L44.435 39.005L44.2468 39.2835L44.0485 39.555L43.8401 39.8194L43.6221 40.0764L43.3947 40.3258L43.1582 40.5674L42.9131 40.8012L42.6596 41.0269L42.3981 41.2444L42.1291 41.4538L41.853 41.6549L41.5702 41.8478L41.2812 42.0324L40.9864 42.2089L40.6863 42.3771L40.3814 42.5374L40.0721 42.6898L39.759 42.8344L39.4425 42.9714L39.123 43.101L38.8011 43.2236L38.4772 43.3392L38.1518 43.4481L37.8252 43.5508L37.498 43.6474L37.1706 43.7383L36.8433 43.8238L36.5165 43.9044L36.1906 43.9803L35.866 44.052L35.5429 44.1198L35.2217 44.1841L34.9026 44.2453L34.586 44.3039L34.272 44.3603L33.9608 44.4147L33.6527 44.4677L33.3477 44.5196L33.0461 44.5708L32.7479 44.6218L32.4532 44.6727L32.162 44.7241L31.8745 44.7763L31.5906 44.8295L31.3102 44.8841L31.0334 44.9404L30.7601 44.9986L30.4902 45.059L30.2237 45.1218L29.9603 45.1872L29.7 45.2554L29.4426 45.3266L29.188 45.4008L28.9359 45.4782L28.6862 45.5588L28.4386 45.6425L28.193 45.7294L27.949 45.8194L27.7065 45.9125L27.4652 46.0084L27.2248 46.1071L26.9852 46.2083L26.7461 46.3119L26.5072 46.4177L26.2684 46.5252L26.0294 46.6344L25.79 46.7449L25.55 46.8563L25.3092 46.9684L25.0675 47.0808L24.8246 47.1931L24.5805 47.305L24.3351 47.4162L24.0881 47.5262L23.8396 47.6347L23.5895 47.7412L23.3376 47.8455L23.0839 47.9472L22.8285 48.0459L22.5713 48.1412L22.3123 48.2329L22.0516 48.3206L21.7891 48.404L21.525 48.4828L21.2593 48.5568L20.992 48.6257L20.7234 48.6893L20.4534 48.7474L20.1822 48.7998L19.91 48.8464L19.6367 48.8871L19.3626 48.9217L19.0878 48.9501L18.8124 48.9722L18.5366 48.9879L18.2605 48.9972L17.9843 49L17.7081 48.9962L17.4321 48.9858L17.1564 48.9687L16.8812 48.945L16.6066 48.9146L16.3328 48.8776L16.0599 48.8339L15.7881 48.7835L15.5176 48.7266L15.2485 48.6632L14.9808 48.5932L14.7149 48.5168L14.4508 48.4341L14.1886 48.3451L13.9286 48.2498L13.6707 48.1485L13.4152 48.0412L13.1621 47.928L12.9117 47.809L12.6639 47.6843L12.4189 47.5541L12.1768 47.4185L11.9378 47.2776L11.7018 47.1316L11.4689 46.9806L11.2394 46.8247L11.0131 46.6642L10.7902 46.4991L10.5708 46.3295L10.3549 46.1558L10.1426 45.978L9.93389 45.7963L9.7288 45.6108L9.52739 45.4217L9.32966 45.2293L9.13565 45.0336L8.94537 44.8348L8.75881 44.6331L8.57597 44.4287L8.39684 44.2217L8.22142 44.0124L8.04966 43.8008L7.88154 43.5873L7.71703 43.3718L7.55607 43.1547L7.39862 42.936L7.24461 42.7159L7.09399 42.4947L6.94669 42.2724L6.80264 42.0493L6.66177 41.8253L6.52401 41.6008L6.38928 41.3757L6.25748 41.1503L6.12855 40.9246L6.00237 40.6989L5.87887 40.4731L5.75793 40.2474L5.63945 40.022L5.52333 39.7969L5.40944 39.5722L5.29769 39.348L5.18794 39.1244L5.08007 38.9015L4.97396 38.6794L4.86948 38.4581L4.76649 38.2377L4.66488 38.0183L4.5645 37.7999L4.46522 37.5826L4.36691 37.3664L4.26944 37.1514L4.17268 36.9375L4.07651 36.7248L3.98081 36.5133L3.88545 36.303L3.79033 36.0939L3.69536 35.886L3.60042 35.6792L3.50545 35.4735L3.41036 35.2688L3.31511 35.0651L3.21964 34.8624L3.12391 34.6604L3.02791 34.4593L2.93163 34.2588L2.83505 34.0589L2.7382 33.8596L2.64108 33.6606L2.54373 33.4619L2.44619 33.2634L2.34852 33.065L2.25079 32.8666L2.15306 32.6681L2.05544 32.4694L1.95803 32.2704L1.86094 32.0709L1.76429 31.8709L1.66823 31.6703L1.57291 31.469L1.47848 31.267L1.38511 31.064L1.29298 30.8601L1.20229 30.6551L1.11322 30.4491L1.02597 30.2419L0.940769 30.0336L0.857818 29.824L0.777339 29.6131L0.699557 29.401L0.624696 29.1875L0.552985 28.9728L0.48465 28.7567L0.419918 28.5394L0.359013 28.3209L0.302156 28.1011L0.249565 27.8802L0.201448 27.6582L0.158011 27.4352L0.119447 27.2113L0.0859434 26.9865L0.0576741 26.761L0.0348023 26.5348L0.017478 26.3081L0.00583699 26.081L0 25.8537L7.15383e-05 25.6262L0.0061391 25.3988L0.0182723 25.1715L0.0365222 24.9445L0.0609204 24.718L0.0914787 24.4922L0.128189 24.2671L0.171021 24.043L0.219925 23.82L0.27483 23.5982L0.335643 23.3778L0.402251 23.159L0.474518 22.9418L0.552292 22.7265L0.635396 22.513L0.723636 22.3017L0.816799 22.0924L0.91465 21.8854L1.01694 21.6808L1.1234 21.4785L1.23375 21.2786L1.34769 21.0812L1.46492 20.8863L1.58511 20.6939L1.70793 20.504L1.83304 20.3165L1.9601 20.1315L2.08877 19.9488L2.21869 19.7684L2.34952 19.5902L2.4809 19.4141L2.61251 19.2399L2.744 19.0676L2.87506 18.8969L3.00537 18.7278L3.13463 18.5599L3.26257 18.3933L3.38892 18.2276L3.51344 18.0626L3.63591 17.8982L3.75614 17.7342L3.87397 17.5703L3.98925 17.4063L4.10188 17.2421L4.21179 17.0775L4.31893 16.9122L4.42331 16.7461L4.52494 16.5791L4.6239 16.411L4.72027 16.2417L4.81415 16.071L4.90566 15.8989L4.99492 15.7253L5.0821 15.5501L5.16734 15.3732L5.25083 15.1946L5.33275 15.0143L5.4133 14.8321L5.49269 14.6482L5.57115 14.4625L5.64889 14.2751L5.72617 14.086L5.80323 13.8953L5.88031 13.7031L5.95768 13.5094L6.03558 13.3143L6.11429 13.1181L6.19405 12.9209L6.27513 12.7228L6.35779 12.5241L6.44227 12.3248L6.52884 12.1253L6.61773 11.9258L6.70917 11.7264L6.80339 11.5276L6.90062 11.3295L7.00105 11.1324L7.10488 10.9365L7.21229 10.7423L7.32345 10.5499L7.4385 10.3598L7.55759 10.1721L7.68083 9.98717L7.80832 9.80537L7.94014 9.62697L8.07637 9.45228L8.21704 9.28158L8.36219 9.11516L8.51183 8.95331L8.66594 8.79629L8.8245 8.64436L8.98745 8.49777L9.15474 8.35673L9.32628 8.22147L9.50196 8.09217L9.68168 7.96902L9.86529 7.85217L10.0526 7.74175L10.2436 7.63786L10.4379 7.54061L10.6355 7.45003L10.8361 7.36619L11.0394 7.28906L11.2454 7.21863L11.4537 7.1548L11.6641 7.09744L11.8763 7.04637L12.09 7.00138L12.305 6.9622L12.521 6.92853L12.7378 6.90004L12.955 6.87635L13.1725 6.85706L13.3899 6.84172L13.6072 6.82988L13.824 6.82104L14.0401 6.81469L14.2555 6.8103L14.4698 6.80734L14.6831 6.80524L14.8952 6.80344L15.1061 6.80137L15.3156 6.79848L15.5237 6.79418L15.7305 6.78793L15.9359 6.77918L16.1401 6.7674L16.3431 6.75207L16.5449 6.73271L16.7458 6.70884L16.9458 6.68004L17.1453 6.6459L17.3442 6.60605L17.5429 6.56017L17.7416 6.50798L17.9405 6.44924L18.14 6.38375L18.3402 6.3114L18.5414 6.23208L18.744 6.14579L18.9482 6.05253L19.1543 5.95235L19.3626 5.84535L19.5734 5.73165L19.7869 5.61139L20.0035 5.48477L20.2234 5.35201L20.4468 5.21336L20.674 5.0691L20.9052 4.91954L21.1407 4.76503L21.3806 4.60594L21.6251 4.44266L21.8745 4.2756L22.1287 4.10522L22.388 3.93198L22.6525 3.75636L22.9223 3.57886L23.1973 3.4L23.4778 3.2203L23.7636 3.04032L24.0548 2.86058L24.3513 2.68167L24.6531 2.50413L24.9601 2.32854L25.2723 2.15545L25.5894 1.98544L25.9114 1.81905L26.2381 1.65686L26.5692 1.4994L26.9046 1.34721L27.2441 1.20082L27.5873 1.06073L27.9341 0.927435L28.284 0.801422L28.637 0.683144L28.9925 0.573038L29.3503 0.471518L29.7101 0.378976L30.0714 0.295776L30.434 0.22226L30.7974 0.158739L31.1613 0.105498L31.5253 0.0627922L31.889 0.0308483L32.2521 0.00986227L32.6141 0L32.9747 0.00139681L33.3335 0.0141574L33.6901 0.0383559L34.0442 0.0740361L34.3954 0.121212L34.7434 0.179867L35.0879 0.249958L35.4285 0.331418L35.7648 0.424163L36.0967 0.52809L36.4238 0.643076L36.7458 0.768982L37.0624 0.905648L37.3734 1.0529L37.6785 1.21055L37.9776 1.37837L38.2703 1.55616L38.5564 1.74367L38.8359 1.94064L39.1084 2.1468L39.374 2.36188L39.6323 2.58559L39.8833 2.81761L40.1269 3.05765L40.363 3.30538L40.5916 3.56048L40.8125 3.8226L41.0258 4.09143L41.2315 4.36662L41.4294 4.64782L41.6198 4.9347L41.8025 5.22692L41.9777 5.52414L42.1453 5.82603L42.3055 6.13226L42.4583 6.4425L42.6039 6.75644L42.7422 7.07377L42.8735 7.39419L42.9978 7.71742L43.1153 8.04318L43.226 8.37119L43.33 8.70122L43.4275 9.03302L43.5186 9.36635L43.6033 9.701L43.6819 10.0367L43.7544 10.3733L43.8211 10.7106L43.882 11.0483L43.9375 11.3861L43.9876 11.7241L44.0326 12.0618L44.0728 12.3992L44.1083 12.736L44.1394 13.0721L44.1663 13.4073L44.1893 13.7415L44.2088 14.0745L44.2248 14.4062L44.2378 14.7365L44.2481 15.0652L44.2558 15.3923L44.2613 15.7177L44.265 16.0412L44.267 16.363L44.2678 16.6828L44.2675 17.0007L44.2665 17.3166L44.2651 17.6306L44.2636 17.9427L44.2622 18.2529L44.2613 18.5612L44.261 18.8676L44.2616 19.1723L44.2635 19.4754L44.2667 19.7768L44.2716 20.0767L44.2784 20.3753L44.2872 20.6726L44.2982 20.9687L44.3116 21.2639L44.3275 21.5582L44.3461 21.8519L44.3674 22.145L44.3916 22.4378L44.4188 22.7303L44.4488 23.0229L44.4819 23.3157L44.518 23.6088L44.557 23.9025L44.599 24.1969L44.6438 24.4922Z" fill="#CC313A"/>
<path d="M17.3002 38.369H20.8337V30.9462C20.0302 31.0432 19.2113 31.0952 18.3794 31.0952C18.0184 31.0952 17.6589 31.0715 17.3002 31.0621V38.369ZM15.5335 30.8848C14.3336 30.7098 13.1519 30.4278 12 30.0325V38.369H15.5335V30.8848ZM33.201 38.369H36.7345V16.9034H36.6453C36.0908 19.6429 34.8874 22.1225 33.201 24.2171V38.369ZM22.6005 38.369H26.134V29.5297C25.0112 30.0084 23.8293 30.3857 22.6005 30.6491V38.369ZM31.4342 26.1133C30.373 27.0944 29.1861 27.9493 27.9007 28.6642V38.369H31.4342V26.1133ZM39.0902 16.0199L35.6385 13.0099L32.1869 10L28.7352 13.0099L25.2836 16.0199H29.0609C27.7888 23.8322 20.5708 29.9096 12.3566 28.6171C11.9953 28.5604 11.8489 29.0469 12.2041 29.1703C22.4265 32.7281 34.2033 26.8824 35.9068 16.0199H39.0902Z" fill="#FEFEFE"/>
</svg>
