<svg width="52" height="46" viewBox="0 0 52 46" fill="none" xmlns="http://www.w3.org/2000/svg">
<path fill-rule="evenodd" clip-rule="evenodd" d="M51.8625 26.6479L51.8934 26.9476L51.9205 27.2478L51.9437 27.5486L51.9631 27.8499L51.9785 28.1516L51.9899 28.4538L51.997 28.7562L52 29.0589L51.9987 29.3618L51.9929 29.6648L51.9828 29.9678L51.9681 30.2707L51.9488 30.5735L51.9249 30.876L51.8962 31.1783L51.8628 31.4801L51.8245 31.7814L51.7814 32.0821L51.7333 32.3822L51.6802 32.6814L51.6221 32.9797L51.559 33.277L51.4907 33.5732L51.4173 33.8682L51.3388 34.1618L51.255 34.454L51.1661 34.7447L51.072 35.0337L50.9726 35.3209L50.868 35.6062L50.7582 35.8896L50.6431 36.1708L50.5228 36.4498L50.3973 36.7265L50.2666 37.0007L50.1307 37.2724L49.9896 37.5414L49.8435 37.8076L49.6922 38.0709L49.5359 38.3312L49.3745 38.5883L49.2082 38.8423L49.037 39.0929L48.8608 39.3401L48.6799 39.5837L48.4942 39.8237L48.3039 40.06L48.1089 40.2924L47.9093 40.521L47.7054 40.7454L47.497 40.9658L47.2843 41.182L47.0674 41.3939L46.8464 41.6015L46.6214 41.8046L46.3925 42.0032L46.1597 42.1972L45.9232 42.3866L45.6832 42.5712L45.4396 42.7511L45.1927 42.9262L44.9426 43.0965L44.6893 43.2618L44.433 43.4222L44.1739 43.5776L43.912 43.728L43.6475 43.8733L43.3806 44.0137L43.1113 44.1489L42.8399 44.2791L42.5663 44.4042L42.2909 44.5242L42.0137 44.6392L41.7349 44.7492L41.4547 44.8541L41.173 44.954L40.8902 45.0489L40.6063 45.1389L40.3216 45.224L40.036 45.3042L39.7499 45.3796L39.4632 45.4503L39.1762 45.5163L38.889 45.5776L38.6017 45.6344L38.3144 45.6867L38.0274 45.7347L37.7406 45.7783L37.4543 45.8176L37.1686 45.8528L36.8835 45.884L36.5992 45.9112L36.3158 45.9346L36.0334 45.9542L35.7522 45.9702L35.4721 45.9827L35.1934 45.9917L34.916 45.9975L34.6402 46L34.3659 45.9995L34.0932 45.996L33.8223 45.9897L33.5532 45.9806L33.2859 45.969L33.0205 45.955L32.7572 45.9386L32.4958 45.92L32.2366 45.8994L31.9794 45.8769L31.7245 45.8526L31.4717 45.8267L31.2212 45.7994L30.973 45.7706L30.7271 45.7407L30.4834 45.7097L30.2421 45.6778L30.0031 45.6451L29.7664 45.6118L29.532 45.5779L29.3 45.5437L29.0702 45.5092L28.8427 45.4745L28.6174 45.4399L28.3943 45.4054L28.1735 45.371L27.9547 45.337L27.7381 45.3035L27.5234 45.2704L27.3108 45.238L27.1001 45.2063L26.8913 45.1754L26.6843 45.1453L26.479 45.1162L26.2754 45.0881L26.0734 45.0611L25.8729 45.0352L25.6739 45.0104L25.4763 44.9869L25.2799 44.9647L25.0848 44.9437L24.8908 44.9241L24.6979 44.9058L24.5059 44.8889L24.3148 44.8734L24.1245 44.8593L23.9349 44.8466L23.7459 44.8352L23.5575 44.8253L23.3696 44.8168L23.182 44.8097L22.9947 44.8039L22.8076 44.7995L22.6207 44.7965L22.4338 44.7948L22.2469 44.7944L22.0599 44.7953L21.8726 44.7975L21.6851 44.8009L21.4973 44.8055L21.3091 44.8112L21.1203 44.818L20.931 44.8259L20.7411 44.8347L20.5505 44.8444L20.3592 44.8549L20.1671 44.8661L19.9741 44.878L19.7802 44.8904L19.5853 44.9032L19.3895 44.9164L19.1926 44.9299L18.9947 44.9434L18.7957 44.9569L18.5956 44.9703L18.3944 44.9835L18.192 44.9963L17.9885 45.0086L17.7838 45.0202L17.5781 45.0311L17.3712 45.0411L17.1631 45.05L16.954 45.0578L16.7439 45.0642L16.5327 45.0692L16.3205 45.0726L16.1074 45.0743L15.8933 45.0741L15.6784 45.0719L15.4627 45.0676L15.2463 45.0611L15.0292 45.0521L14.8116 45.0406L14.5934 45.0266L14.3748 45.0097L14.1558 44.99L13.9366 44.9673L13.7173 44.9415L13.4978 44.9125L13.2784 44.8802L13.0591 44.8446L12.8401 44.8054L12.6214 44.7627L12.4031 44.7164L12.1855 44.6664L11.9684 44.6126L11.7522 44.555L11.5369 44.4936L11.3225 44.4282L11.1093 44.3589L10.8972 44.2858L10.6864 44.2086L10.477 44.1276L10.269 44.0427L10.0626 43.9538L9.85783 43.8611L9.65474 43.7645L9.45342 43.6642L9.25393 43.5601L9.05635 43.4523L8.86072 43.3408L8.6671 43.2258L8.47553 43.1072L8.28606 42.9851L8.09873 42.8597L7.91356 42.731L7.7306 42.599L7.54987 42.4639L7.37137 42.3257L7.19514 42.1845L7.02119 42.0403L6.84951 41.8934L6.68012 41.7437L6.51302 41.5913L6.34821 41.4364L6.18567 41.2789L6.0254 41.1191L5.86739 40.9569L5.71163 40.7924L5.55811 40.6258L5.40679 40.4571L5.25768 40.2863L5.11074 40.1136L4.96595 39.9389L4.82331 39.7625L4.68277 39.5843L4.54434 39.4043L4.40798 39.2228L4.27367 39.0396L4.14141 38.8549L4.01117 38.6687L3.88294 38.481L3.75671 38.2919L3.63247 38.1014L3.51021 37.9096L3.38994 37.7165L3.27166 37.5221L3.15536 37.3264L3.04107 37.1295L2.92879 36.9313L2.81853 36.732L2.71031 36.5315L2.60414 36.3298L2.50002 36.127L2.39797 35.9231L2.29799 35.7181L2.2001 35.512L2.1043 35.3049L2.01061 35.0968L1.91902 34.8877L1.82955 34.6776L1.74221 34.4665L1.65699 34.2545L1.57391 34.0416L1.49297 33.8278L1.41418 33.6132L1.33752 33.3977L1.26302 33.1813L1.19067 32.9642L1.12047 32.7464L1.05242 32.5277L0.986528 32.3084L0.922784 32.0883L0.86119 31.8675L0.801743 31.6461L0.744443 31.4241L0.689285 31.2014L0.636268 30.9782L0.585387 30.7543L0.536639 30.5299L0.49002 30.305L0.445527 30.0795L0.403156 29.8536L0.362903 29.6271L0.324765 29.4002L0.288739 29.1729L0.254822 28.9451L0.223013 28.717L0.193309 28.4884L0.16571 28.2595L0.140216 28.0302L0.116827 27.8006L0.0955459 27.5706L0.0763749 27.3404L0.0593183 27.1098L0.0443812 26.879L0.0315712 26.6479L0.0209001 26.4166L0.0123844 26.1851L0.00604489 25.9533L0.00190693 25.7214L0 25.4893L0.000357649 25.2571L0.00301725 25.0247L0.0080198 24.7923L0.0154097 24.5597L0.0252345 24.3272L0.0375447 24.0946L0.0523933 23.862L0.0698356 23.6295L0.0899291 23.3971L0.112733 23.1649L0.138307 22.9328L0.166713 22.7009L0.198014 22.4694L0.232271 22.2381L0.269546 22.0073L0.309903 21.7769L0.353401 21.547L0.400101 21.3177L0.45006 21.089L0.503336 20.8611L0.559982 20.6339L0.620049 20.4076L0.683587 20.1822L0.750638 19.9578L0.821244 19.7345L0.895442 19.5124L0.973265 19.2915L1.05474 19.0719L1.13988 18.8537L1.22872 18.6371L1.32126 18.422L1.4175 18.2086L1.51745 17.9969L1.62109 17.7871L1.72842 17.5791L1.8394 17.3731L1.95401 17.1692L2.07222 16.9673L2.19398 16.7677L2.31923 16.5703L2.44793 16.3752L2.58 16.1824L2.71537 15.9921L2.85396 15.8042L2.99568 15.6187L3.14043 15.4358L3.28811 15.2554L3.43861 15.0775L3.59181 14.9022L3.74758 14.7294L3.90581 14.5592L4.06638 14.3914L4.22915 14.2262L4.39401 14.0635L4.56083 13.9032L4.72948 13.7453L4.89984 13.5898L5.07179 13.4366L5.24521 13.2857L5.41997 13.1371L5.59596 12.9906L5.77306 12.8462L5.95116 12.7038L6.13014 12.5634L6.3099 12.4249L6.49033 12.2882L6.67134 12.1532L6.85282 12.0198L7.03468 11.888L7.21684 11.7576L7.39921 11.6285L7.58171 11.5008L7.76426 11.3741L7.94681 11.2486L8.12928 11.1239L8.31161 11.0002L8.49377 10.8772L8.67568 10.7548L8.85733 10.633L9.03867 10.5116L9.21968 10.3905L9.40033 10.2698L9.5806 10.1491L9.76049 10.0285L9.93999 9.90791L10.1191 9.78716L10.2978 9.66621L10.4762 9.54497L10.6542 9.42335L10.8319 9.3013L11.0093 9.17874L11.1864 9.05561L11.3633 8.93185L11.54 8.8074L11.7166 8.68223L11.8932 8.55629L12.0697 8.42955L12.2462 8.30197L12.4229 8.17352L12.5997 8.04418L12.7767 7.91392L12.9541 7.78273L13.1318 7.65059L13.3099 7.51748L13.4886 7.3834L13.6678 7.24834L13.8476 7.11231L14.0282 6.97532L14.2096 6.83737L14.3918 6.69848L14.575 6.55868L14.7593 6.41798L14.9446 6.27644L15.1311 6.13408L15.3189 5.99094L15.508 5.84709L15.6985 5.70258L15.8905 5.55747L16.0841 5.41184L16.2793 5.26575L16.4763 5.11928L16.675 4.97254L16.8755 4.82559L17.078 4.67856L17.2825 4.53153L17.489 4.38462L17.6976 4.23794L17.9084 4.0916L18.1213 3.94574L18.3365 3.80047L18.554 3.65594L18.7738 3.51226L18.996 3.36958L19.2206 3.22804L19.4476 3.08778L19.677 2.94895L19.9089 2.81168L20.1433 2.67613L20.3801 2.54243L20.6193 2.41075L20.8611 2.28122L21.1053 2.15398L21.3519 2.02919L21.6009 1.90698L21.8524 1.78749L22.1062 1.67086L22.3623 1.55722L22.6207 1.44669L22.8814 1.33941L23.1442 1.23547L23.4092 1.13501L23.6763 1.03813L23.9454 0.944933L24.2165 0.855531L24.4894 0.770028L24.7643 0.688526L25.0409 0.611125L25.3191 0.537923L25.599 0.469015L25.8804 0.404492L26.1633 0.344444L26.4475 0.288956L26.733 0.238108L27.0196 0.191979L27.3074 0.150644L27.5961 0.114171L27.8857 0.0826278L28.1761 0.0560746L28.4672 0.0345688L28.7589 0.0181629L29.051 0.00690483L29.3435 0.000837725L29.6363 0L29.9292 0.00442521L30.2222 0.014142L30.5151 0.0291743L30.8078 0.0495407L31.1003 0.0752553L31.3924 0.106327L31.684 0.14276L31.975 0.184553L32.2653 0.231702L32.5547 0.284194L32.8433 0.342016L33.1308 0.405148L33.4173 0.473565L33.7025 0.547239L33.9864 0.626136L34.2688 0.71022L34.5498 0.799449L34.8292 0.893777L35.1069 0.993157L35.3828 1.09753L35.6568 1.20685L35.929 1.32105L36.199 1.44008L36.4671 1.56385L36.7329 1.69231L36.9965 1.82538L37.2578 1.96299L37.5167 2.10505L37.7732 2.25149L38.0273 2.40221L38.2788 2.55713L38.5277 2.71614L38.774 2.87916L39.0177 3.04609L39.2587 3.21682L39.497 3.39126L39.7326 3.5693L39.9654 3.75085L40.1955 3.93579L40.4228 4.12403L40.6474 4.31546L40.8691 4.50998L41.0881 4.70748L41.3042 4.90788L41.5177 5.11106L41.7283 5.31693L41.9362 5.52539L42.1414 5.73635L42.3438 5.94971L42.5436 6.16538L42.7406 6.38327L42.935 6.6033L43.1268 6.82538L43.316 7.04942L43.5027 7.27536L43.6868 7.5031L43.8684 7.73258L44.0475 7.96373L44.2242 8.19647L44.3985 8.43074L44.5704 8.66648L44.7401 8.90363L44.9074 9.14212L45.0725 9.38192L45.2354 9.62295L45.3961 9.86518L45.5547 10.1086L45.7113 10.353L45.8657 10.5986L46.0182 10.8452L46.1687 11.0927L46.3173 11.3413L46.464 11.5907L46.6088 11.8411L46.7519 12.0923L46.8931 12.3444L47.0327 12.5973L47.1705 12.851L47.3067 13.1055L47.4412 13.3608L47.5742 13.6169L47.7055 13.8738L47.8354 14.1314L47.9637 14.3897L48.0905 14.6488L48.2159 14.9087L48.3398 15.1693L48.4623 15.4307L48.5833 15.6929L48.7028 15.9559L48.821 16.2197L48.9377 16.4842L49.0529 16.7496L49.1667 17.0159L49.279 17.283L49.3898 17.551L49.4991 17.8198L49.6069 18.0896L49.713 18.3603L49.8176 18.6319L49.9205 18.9045L50.0218 19.1781L50.1213 19.4526L50.219 19.7282L50.315 20.0047L50.409 20.2823L50.5011 20.5609L50.5912 20.8406L50.6792 21.1213L50.7652 21.4031L50.8489 21.6859L50.9304 21.9699L51.0095 22.2548L51.0862 22.5408L51.1604 22.8279L51.2321 23.116L51.3012 23.4052L51.3675 23.6954L51.431 23.9865L51.4916 24.2787L51.5493 24.5718L51.6039 24.8658L51.6553 25.1608L51.7035 25.4566L51.7485 25.7533L51.79 26.0508L51.828 26.349L51.8625 26.6479Z" fill="url(#paint0_linear_17_480)"/>
<path d="M29.625 11L17.25 36H21.375L33.75 11H29.625ZM13.125 15.1667L9 23.5L13.125 31.8333H17.25L13.125 23.5L17.25 15.1667H13.125ZM33.75 15.1667L37.875 23.5L33.75 31.8333H37.875L42 23.5L37.875 15.1667H33.75Z" fill="white"/>
<defs>
<linearGradient id="paint0_linear_17_480" x1="-49.4594" y1="-60.2187" x2="-87.8428" y2="-28.6933" gradientUnits="userSpaceOnUse">
<stop stop-color="#0F1CE8"/>
<stop offset="1" stop-color="#D129A8"/>
</linearGradient>
</defs>
</svg>
