<svg width="61" height="57" viewBox="0 0 61 57" fill="none" xmlns="http://www.w3.org/2000/svg">
<path fill-rule="evenodd" clip-rule="evenodd" d="M60.8596 28.9678L60.7735 29.3813L60.6674 29.7922L60.5417 30.1998L60.3967 30.6034L60.2329 31.0026L60.0507 31.3966L59.8509 31.785L59.6339 32.1672L59.4005 32.5428L59.1515 32.9113L58.8876 33.2723L58.6099 33.6255L58.3193 33.9705L58.0168 34.3071L57.7035 34.6352L57.3807 34.9546L57.0495 35.2653L56.7111 35.5673L56.3671 35.8608L56.0189 36.1459L55.6679 36.4229L55.3157 36.6923L54.9639 36.9544L54.614 37.2099L54.2676 37.4594L53.926 37.7036L53.5908 37.9432L53.2631 38.179L52.9443 38.412L52.6356 38.6429L52.3379 38.8728L52.0523 39.1026L51.7798 39.3333L51.5211 39.5659L51.2768 39.8015L51.0475 40.041L50.8335 40.2855L50.6351 40.5358L50.4523 40.7929L50.2852 41.0575L50.1334 41.3304L49.9966 41.6124L49.8743 41.904L49.7659 42.2057L49.6706 42.518L49.5876 42.841L49.5159 43.1752L49.4545 43.5204L49.4021 43.8768L49.3577 44.2441L49.3198 44.6222L49.2872 45.0106L49.2585 45.4088L49.2323 45.8164L49.2071 46.2325L49.1817 46.6564L49.1545 47.0872L49.1241 47.5239L49.0893 47.9654L49.0486 48.4106L49.0009 48.8583L48.9449 49.3071L48.8794 49.7558L48.8033 50.2029L48.7157 50.647L48.6157 51.0867L48.5024 51.5205L48.375 51.947L48.2331 52.3646L48.0759 52.7719L47.9031 53.1674L47.7144 53.5498L47.5096 53.9177L47.2885 54.2697L47.0511 54.6046L46.7976 54.9212L46.5281 55.2185L46.243 55.4952L45.9426 55.7507L45.6274 55.9838L45.298 56.1941L44.955 56.3808L44.5992 56.5433L44.2313 56.6814L43.8523 56.7948L43.463 56.8833L43.0643 56.9469L42.6574 56.9857L42.2431 57L41.8226 56.9901L41.397 56.9566L40.9672 56.9L40.5344 56.8212L40.0997 56.7208L39.664 56.6L39.2284 56.4598L38.7939 56.3013L38.3614 56.1257L37.9318 55.9343L37.506 55.7286L37.0847 55.5099L36.6687 55.2798L36.2586 55.0397L35.855 54.7913L35.4585 54.5362L35.0695 54.2759L34.6883 54.012L34.3153 53.7462L33.9505 53.4798L33.5943 53.2143L33.2466 52.9512L32.9073 52.6919L32.5764 52.4375L32.2538 52.1895L31.9391 51.9489L31.6323 51.717L31.3328 51.4948L31.0403 51.2833L30.7545 51.0835L30.4748 50.8962L30.2007 50.7222L29.9316 50.5619L29.667 50.416L29.4063 50.2849L29.1488 50.1687L28.8939 50.0678L28.641 49.9822L28.3895 49.9117L28.1388 49.8564L27.8881 49.8158L27.637 49.7897L27.3848 49.7775L27.1311 49.7788L26.8753 49.7929L26.617 49.8192L26.3557 49.8568L26.091 49.905L25.8226 49.9628L25.5502 50.0295L25.2735 50.1039L24.9924 50.1852L24.7066 50.2723L24.4161 50.3643L24.1207 50.4602L23.8205 50.559L23.5155 50.6597L23.2057 50.7613L22.8912 50.863L22.5721 50.9638L22.2486 51.0629L21.9209 51.1595L21.5891 51.2529L21.2535 51.3423L20.9143 51.4271L20.5718 51.5067L20.2262 51.5806L19.8777 51.6482L19.5266 51.7092L19.1733 51.7632L18.8179 51.8098L18.4606 51.8489L18.1018 51.8802L17.7416 51.9035L17.3802 51.9188L17.018 51.9258L16.655 51.9247L16.2914 51.9154L15.9274 51.8978L15.5632 51.872L15.1989 51.8381L14.8346 51.7962L14.4704 51.7462L14.1066 51.6883L13.7431 51.6226L13.38 51.5492L13.0176 51.4681L12.6558 51.3795L12.2948 51.2835L11.9345 51.1802L11.575 51.0697L11.2165 50.9523L10.8588 50.8279L10.502 50.6969L10.1461 50.5592L9.7913 50.4149L9.43755 50.2641L9.08501 50.1068L8.73381 49.943L8.38413 49.7726L8.0362 49.5955L7.69029 49.4116L7.34672 49.2208L7.00587 49.0229L6.66821 48.8176L6.33421 48.6048L6.00437 48.3842L5.67917 48.1557L5.35908 47.9192L5.04453 47.6746L4.73594 47.4219L4.43373 47.1611L4.1383 46.8922L3.85004 46.6153L3.56934 46.3303L3.29661 46.0375L3.03222 45.7368L2.77657 45.4285L2.53005 45.1126L2.29304 44.7893L2.06591 44.4588L1.84903 44.1212L1.64278 43.7767L1.44748 43.4257L1.26348 43.0682L1.09109 42.7046L0.930607 42.3352L0.782293 41.9602L0.646392 41.58L0.523118 41.1949L0.412653 40.8053L0.315143 40.4115L0.230701 40.014L0.159403 39.6131L0.101285 39.2092L0.0563455 38.8027L0.0245444 38.3942L0.00580189 37.984L0 37.5725L0.00698321 37.1602L0.0265598 36.7475L0.0585035 36.3348L0.102556 35.9226L0.158428 35.5113L0.225803 35.1012L0.304341 34.6927L0.393681 34.2862L0.493443 33.8821L0.603233 33.4807L0.722646 33.0823L0.851273 32.6872L0.988698 32.2957L1.13451 31.9079L1.2883 31.5243L1.44966 31.1449L1.6182 30.77L1.79356 30.3997L1.97536 30.0342L2.16327 29.6736L2.35697 29.3182L2.55615 28.9678L2.76056 28.6228L2.96993 28.2832L3.18405 27.9489L3.4027 27.6203L3.62571 27.2972L3.85293 26.9797L4.08419 26.668L4.31938 26.362L4.55837 26.0619L4.80104 25.7677L5.04727 25.4794L5.29694 25.197L5.54988 24.9207L5.80593 24.6505L6.06489 24.3863L6.32656 24.1283L6.59066 23.8763L6.85682 23.6303L7.12457 23.3903L7.39329 23.1561L7.66229 22.9276L7.93076 22.7044L8.19783 22.4861L8.46253 22.2725L8.72383 22.0631L8.98062 21.8571L9.23174 21.6541L9.47598 21.4532L9.71221 21.2537L9.93932 21.0548L10.1563 20.8555L10.3624 20.655L10.5566 20.4523L10.7385 20.2466L10.9073 20.037L11.0627 19.8225L11.2043 19.6023L11.3318 19.3754L11.4453 19.1411L11.5445 18.8985L11.6298 18.6469L11.7012 18.3856L11.7591 18.1138L11.804 17.8311L11.8363 17.5368L11.8567 17.2306L11.8659 16.912L11.8647 16.5808L11.8541 16.2369L11.8349 15.88L11.8083 15.5103L11.7753 15.1278L11.7372 14.7327L11.695 14.3255L11.6501 13.9064L11.6038 13.476L11.5573 13.0351L11.5119 12.5842L11.4691 12.1242L11.4301 11.6561L11.3962 11.181L11.3686 10.6998L11.3487 10.2139L11.3376 9.72443L11.3365 9.2328L11.3465 8.74039L11.3686 8.24863L11.4037 7.75903L11.4527 7.27308L11.5165 6.79233L11.5957 6.31832L11.6908 5.85258L11.8025 5.39664L11.931 4.952L12.0767 4.52012L12.2397 4.10239L12.4202 3.70017L12.6179 3.31472L12.8329 2.94722L13.0647 2.59876L13.3132 2.27031L13.5777 1.96274L13.8577 1.67676L14.1526 1.413L14.4616 1.17189L14.784 0.953764L15.1188 0.758777L15.4651 0.586947L15.822 0.438137L16.1884 0.312061L16.5633 0.208292L16.9456 0.126263L17.3342 0.0652786L17.7282 0.0245286L18.1265 0.00310085L18.528 0L18.9319 0.0141688L19.3373 0.044501L19.7432 0.0898314L20.1488 0.148951L20.5536 0.220679L20.9567 0.303896L21.3577 0.397555L21.756 0.500684L22.1513 0.612393L22.5431 0.731879L22.9313 0.858437L23.3155 0.991465L23.6956 1.13048L24.0714 1.27511L24.4429 1.4251L24.8099 1.58027L25.1723 1.74041L25.5302 1.90531L25.8834 2.07476L26.2319 2.24852L26.5755 2.42633L26.9144 2.60794L27.2483 2.79309L27.5774 2.98154L27.9015 3.17304L28.2207 3.36735L28.535 3.56422L28.8443 3.76344L29.1488 3.96477L29.4483 4.16799L29.743 4.37289L30.0329 4.57924L30.318 4.78682L30.5984 4.99543L30.8741 5.20482L31.1453 5.41477L31.4119 5.62506L31.6741 5.83542L31.932 6.04563L32.1857 6.25541L32.4353 6.46451L32.6809 6.67265L32.9228 6.87956L33.1609 7.08494L33.3957 7.28852L33.6271 7.48998L33.8554 7.68905L34.0809 7.88543L34.3037 8.07882L34.5242 8.26895L34.7425 8.45552L34.9589 8.63828L35.1738 8.81696L35.3873 8.99134L35.5998 9.16118L35.8117 9.32629L36.0231 9.4865L36.2345 9.64164L36.4461 9.7916L36.6583 9.9363L36.8714 10.0757L37.0856 10.2097L37.3013 10.3383L37.5187 10.4617L37.7382 10.5798L37.9599 10.6928L38.1842 10.8009L38.4113 10.9042L38.6413 11.0029L38.8744 11.0974L39.1108 11.1879L39.3506 11.2747L39.5939 11.3582L39.8408 11.4387L40.0913 11.5167L40.3454 11.5926L40.603 11.6668L40.8642 11.7398L41.1289 11.812L41.3968 11.8839L41.6679 11.956L41.9421 12.0288L42.219 12.1027L42.4986 12.1783L42.7805 12.2558L43.0644 12.3359L43.3502 12.419L43.6375 12.5053L43.9261 12.5953L44.2159 12.6892L44.5066 12.787L44.7983 12.8889L45.0909 12.995L45.3844 13.1052L45.6789 13.2194L45.9744 13.3378L46.2711 13.46L46.569 13.5862L46.8684 13.7162L47.1695 13.8499L47.4723 13.9872L47.7772 14.128L48.0844 14.2723L48.3942 14.4199L48.7067 14.5708L49.0222 14.7251L49.341 14.8825L49.6632 15.0434L49.9889 15.2076L50.3183 15.3753L50.6513 15.5467L50.988 15.7219L51.3283 15.9013L51.672 16.085L52.0189 16.2733L52.3687 16.4665L52.7211 16.665L53.0757 16.8691L53.432 17.079L53.7894 17.2953L54.1473 17.5181L54.5051 17.7478L54.862 17.9848L55.2173 18.2293L55.5702 18.4815L55.9198 18.7419L56.2652 19.0104L56.6055 19.2874L56.9398 19.5729L57.2671 19.8671L57.5864 20.1699L57.8969 20.4815L58.1974 20.8017L58.4872 21.1305L58.7652 21.4676L59.0305 21.813L59.2822 22.1664L59.5196 22.5275L59.7417 22.896L59.9479 23.2714L60.1373 23.6534L60.3094 24.0416L60.4635 24.4353L60.599 24.8341L60.7155 25.2375L60.8126 25.6448L60.8898 26.0554L60.9469 26.4687L60.9837 26.884L61 27.3007L60.9957 27.7181L60.9708 28.1356L60.9254 28.5524L60.8596 28.9678Z" fill="#51AE8D"/>
<path d="M28.8571 37.0696C28.1013 36.986 27.3719 36.8152 26.679 36.5673C26.7023 36.062 26.7144 35.5351 26.7144 34.9856L26.7145 34.8133C26.7146 34.64 26.7147 34.4563 26.714 34.2637C27.3802 34.5802 28.1004 34.8014 28.8571 34.9097V29.6285C28.8571 27.8533 30.2962 26.4142 32.0714 26.4142H37.3527C36.8326 22.7796 33.7069 19.9856 29.9286 19.9856C28.6737 19.9856 27.4908 20.2938 26.4515 20.8386C26.2729 20.1191 26.0001 19.4624 25.623 18.855C26.919 18.2072 28.3812 17.8428 29.9286 17.8428C34.892 17.8428 38.9796 21.5928 39.5125 26.4142H42.7857C44.5608 26.4142 46 27.8533 46 29.6285V40.3428C46 42.1179 44.5608 43.5571 42.7857 43.5571H32.0714C30.2962 43.5571 28.8571 42.1179 28.8571 40.3428V37.0696ZM39.5125 28.5571C39.0186 33.0266 35.4696 36.5756 31 37.0696V40.3428C31 40.9344 31.4797 41.4142 32.0714 41.4142H42.7857C43.3773 41.4142 43.8571 40.9344 43.8571 40.3428V29.6285C43.8571 29.0368 43.3773 28.5571 42.7857 28.5571H39.5125ZM37.3527 28.5571H32.0714C31.4797 28.5571 31 29.0368 31 29.6285V34.9097C34.2847 34.4398 36.8828 31.8417 37.3527 28.5571Z" fill="#FEFEFE"/>
<path d="M24.1321 29.7594C23.9072 28.933 23.5426 28.103 22.9178 27.4682C23.9278 26.5065 24.5714 24.9825 24.5714 23.2C24.5714 21.7057 24.2688 20.6806 23.7219 19.8601C23.4599 19.4672 23.1641 19.1552 22.8886 18.8889C22.7429 18.748 22.6293 18.6433 22.5229 18.5451C22.3916 18.4241 22.2712 18.3131 22.1148 18.1566C21.7931 17.835 21.7589 17.5778 21.7589 17.441C21.7589 17.3582 21.7729 17.291 21.7847 17.2499C21.7887 17.2359 21.7921 17.2262 21.7939 17.2212C21.9923 16.7925 21.8865 16.2825 21.5305 15.9682C21.1663 15.6466 20.6313 15.6104 20.2271 15.8799L20.2233 15.8824L20.2173 15.8865L20.1982 15.8995L20.1343 15.9438C20.0809 15.9814 20.0063 16.035 19.9154 16.103C19.7339 16.2388 19.4848 16.4344 19.2072 16.6783C18.6688 17.1514 17.9716 17.8511 17.4756 18.6873C17.0614 19.3293 16.7016 20.1274 16.4438 20.899C16.1871 21.6669 16 22.5021 16 23.2C16 24.9825 16.6437 26.5065 17.6537 27.4682C17.0288 28.103 16.6642 28.933 16.4394 29.7594C15.9997 31.3753 15.9999 33.3672 16 34.9092V34.9857C16 39.3961 16.8259 42.0159 17.7598 43.5725C18.2281 44.3529 18.7175 44.8554 19.1257 45.173C19.3287 45.3307 19.5083 45.4404 19.6505 45.5148C19.7214 45.5521 19.7828 45.5804 19.8329 45.6014C19.8329 45.6014 20.1047 45.6999 20.2857 45.6999C20.4667 45.6999 20.7386 45.6014 20.7386 45.6014C20.7886 45.5804 20.85 45.5521 20.921 45.5148C21.0632 45.4404 21.2428 45.3307 21.4458 45.173C21.8539 44.8554 22.3434 44.3529 22.8116 43.5725C23.7456 42.0159 24.5714 39.3961 24.5714 34.9857L24.5715 34.9092C24.5716 33.3672 24.5717 31.3752 24.1321 29.7594ZM19.1869 28.9652C19.4268 28.7242 19.7512 28.5571 20.2857 28.5571C20.8203 28.5571 21.1447 28.7242 21.3846 28.9652C21.6549 29.2369 21.8892 29.678 22.0644 30.322C22.421 31.6327 22.4286 33.3513 22.4286 34.9857C22.4286 39.1467 21.6473 41.3482 20.9741 42.4702C20.7176 42.8977 20.4734 43.1746 20.2857 43.3486C20.098 43.1746 19.8539 42.8977 19.5973 42.4702C18.9242 41.3482 18.1429 39.1467 18.1429 34.9857C18.1429 33.3513 18.1504 31.6327 18.5071 30.322C18.6823 29.678 18.9165 29.2369 19.1869 28.9652ZM20.2857 26.4142C19.4613 26.4142 18.1429 25.4978 18.1429 23.2C18.1429 22.8286 18.2545 22.2414 18.4761 21.5782C18.6938 20.9267 18.9869 20.2938 19.2852 19.8353C19.294 19.8217 19.3026 19.8078 19.3108 19.7938C19.4967 19.4774 19.7401 19.1706 20.0008 18.8897C20.1477 19.1523 20.3435 19.4158 20.5995 19.6719C20.757 19.8294 20.9606 20.0188 21.1343 20.1805C21.239 20.278 21.3328 20.3653 21.3993 20.4296C21.6261 20.6488 21.799 20.8389 21.9389 21.0487C22.1955 21.4337 22.4286 22.0157 22.4286 23.2C22.4286 25.4978 21.1101 26.4142 20.2857 26.4142Z" fill="#FEFEFE"/>
</svg>
